# Blender v2.79 (sub 0) OBJ File: ''
# www.blender.org
mtllib platform.mtl
o Cube
v 0.133547 -0.556758 -1.074633
v -4.630414 -0.692565 -0.864202
v 0.000000 8.900221 -0.770182
v 5.164603 -0.766180 -0.883241
v 0.534188 -11.127248 -1.188807
v -4.785501 -11.053635 -0.958221
v -4.165156 8.283375 -0.582140
v 4.165157 8.283372 -0.582140
v 6.922256 -11.348083 -1.034379
v 0.133549 -0.556751 5.081507
v 0.534189 -11.127239 5.195685
v 5.164605 -0.766174 4.890115
v 0.000003 8.900228 4.777055
v -4.630413 -0.692558 4.871077
v -4.785501 -11.053627 4.965099
v 6.922258 -11.348075 5.041255
v 4.165160 8.283377 4.589013
v -4.165154 8.283382 4.589013
v -11.587111 -0.538346 2.003437
v -11.963750 -11.053627 2.003439
v -10.811682 -0.692556 3.231586
v -10.457200 8.900229 2.003437
v -10.811684 -0.692560 0.775288
v -11.166166 -11.053630 0.734156
v -11.166166 -11.053625 3.272722
v -9.748238 8.283383 3.108183
v -9.748238 8.283381 0.898690
v 0.000003 22.294619 2.003437
v -4.475325 20.796564 2.003437
v 0.000004 20.796562 3.190451
v 4.475331 20.796558 2.003437
v 0.000002 20.796560 0.816422
v -4.165154 19.386627 0.898690
v -4.165153 19.386629 3.108183
v 4.165160 19.386623 3.108183
v 4.165159 19.386621 0.898690
v 12.937974 -0.287057 2.003436
v 10.457204 8.900219 2.003437
v 12.068386 -0.574108 3.250624
v 17.367195 -10.048438 2.003434
v 12.068384 -0.574110 0.756248
v 9.748240 8.283372 0.898690
v 9.748241 8.283373 3.108183
v 16.192970 -10.579799 3.348875
v 16.192968 -10.579802 0.657995
v -11.587121 -36.803570 2.003457
v -11.963755 -29.889307 2.003449
v -10.811692 -36.728878 0.775308
v -10.457214 -41.982273 2.003464
v -10.811693 -36.728878 3.231606
v -11.166173 -29.889307 3.272732
v -11.166170 -29.889311 0.734167
v -9.748249 -41.683498 0.898718
v -9.748251 -41.683495 3.108210
v 1.522552 -48.832790 2.003475
v -4.475342 -47.744392 2.003474
v 1.600095 -48.085850 0.775325
v 10.565578 -49.195587 2.003474
v 1.600095 -48.085846 3.231623
v -4.165171 -47.061470 3.108219
v -4.165170 -47.061474 0.898726
v 10.565578 -48.427311 0.734189
v 10.565578 -48.427307 3.272755
v 1.436705 -36.859325 5.171140
v 1.256695 -29.962919 5.248582
v -4.630424 -36.728878 4.871096
v 1.600098 -42.131660 4.871103
v 10.377262 -36.951878 5.248588
v 9.812300 -30.183754 5.252811
v -4.785506 -29.889307 4.965110
v -4.165169 -41.683495 4.589040
v 10.565581 -42.281048 4.965122
v 58.821465 -37.590637 -1.087798
v 39.878296 -37.348434 -1.188803
v 58.865437 -32.687618 -0.909577
v 77.403442 -37.671368 -0.822844
v 59.053757 -42.332191 -0.890522
v 40.066620 -42.281059 -0.958209
v 39.313335 -31.769945 -1.034381
v 78.144279 -32.857155 -0.687462
v 78.144287 -42.485588 -0.687445
v 1.436706 -36.859333 -1.164227
v 1.256696 -29.962931 -1.241685
v 10.377261 -36.951889 -1.241679
v 1.600098 -42.131668 -0.864175
v -4.630422 -36.728886 -0.864182
v -4.785505 -29.889317 -0.958211
v 9.812299 -30.183764 -1.245918
v 10.565581 -42.281059 -0.958198
v -4.165167 -41.683502 -0.582113
v 116.998787 -49.382622 2.104447
v 108.069595 -49.606953 2.090170
v 117.086548 -49.185501 1.119166
v 123.213463 -48.295982 2.109204
v 117.086548 -49.185497 3.291755
v 108.480713 -49.250019 3.348874
v 108.480713 -49.250023 1.004932
v 123.153419 -48.164639 1.157242
v 123.153404 -48.164635 3.272713
v 59.320774 -25.365292 2.011878
v 40.886353 -23.122007 2.003424
v 59.229694 -26.144812 3.310778
v 78.392609 -26.044878 2.037255
v 59.229694 -26.144815 0.729903
v 40.110916 -24.037512 0.657985
v 40.110920 -24.037508 3.348865
v 78.803734 -26.710894 3.348848
v 78.803734 -26.710899 0.793358
v 58.821472 -37.590630 5.190922
v 39.878296 -37.348431 5.195690
v 59.053757 -42.332188 4.984142
v 77.403442 -37.671364 5.214712
v 58.865437 -32.687607 5.003166
v 39.313335 -31.769936 5.041253
v 40.066620 -42.281055 4.965111
v 78.144279 -42.485584 5.041251
v 78.144287 -32.857143 5.041235
v 59.115837 -49.221161 2.011916
v 40.066612 -49.195595 2.003463
v 59.218613 -48.478443 0.748978
v 78.392609 -49.297859 2.037293
v 59.218613 -48.478443 3.291775
v 40.066612 -48.427311 3.272744
v 40.066616 -48.427315 0.734178
v 78.803726 -48.631844 0.793395
v 78.803719 -48.631836 3.348885
v 130.499588 -37.671394 2.109186
v 129.690002 -33.117992 2.109179
v 130.349457 -37.671394 3.272696
v 129.690002 -42.224789 2.109194
v 130.349457 -37.671394 1.157224
v 129.549896 -33.174286 1.157217
v 129.549896 -33.174282 3.272688
v 129.549896 -42.168499 3.272703
v 129.549896 -42.168499 1.157232
v 118.219292 -28.308615 5.181364
v 117.809067 -27.475151 4.984095
v 113.822365 -28.872015 5.195645
v 118.356041 -28.961710 4.965058
v 122.342735 -28.951302 5.176605
v 122.673012 -28.228899 4.965057
v 111.851166 -27.911779 5.041214
v 114.639565 -29.542349 4.965059
v 122.072510 -29.542358 4.965059
v 116.998787 -25.960138 2.104408
v 108.069603 -25.735798 2.090130
v 117.086548 -26.157259 3.291716
v 123.213463 -27.046789 2.109169
v 117.086548 -26.157265 1.119127
v 108.480713 -26.092733 1.004893
v 108.480713 -26.092730 3.348835
v 123.153419 -27.178133 3.272678
v 123.153404 -27.178137 1.157207
v 128.322784 -37.671387 5.176620
v 129.148453 -37.671387 4.965073
v 127.658333 -33.934208 5.176614
v 127.647224 -37.671387 4.965073
v 127.658318 -41.408562 5.176626
v 128.428970 -41.718163 4.965080
v 128.428970 -33.624607 4.965066
v 127.027809 -34.187519 4.965067
v 127.027809 -41.155254 4.965078
v 107.032051 -37.671368 5.265471
v 102.134590 -37.671364 5.320475
v 107.784264 -41.487823 5.248553
v 109.064857 -37.671368 4.965073
v 107.784264 -33.854916 5.248540
v 103.205162 -33.307476 5.252772
v 103.205147 -42.035255 5.252787
v 109.684265 -41.155239 4.965079
v 109.684265 -34.187500 4.965067
v 118.219292 -47.034138 5.181396
v 117.809067 -47.867603 4.984129
v 122.342735 -46.391460 5.176635
v 118.356041 -46.381046 4.965087
v 113.822365 -46.470730 5.195674
v 111.851151 -47.430965 5.041247
v 122.673012 -47.113865 4.965089
v 122.072510 -45.800404 4.965087
v 114.639565 -45.800396 4.965087
v 118.219292 -28.308620 2.099651
v 117.809067 -27.475161 1.119129
v 122.342735 -28.951305 2.109172
v 118.356041 -28.961716 3.272681
v 113.822365 -28.872021 2.071093
v 111.851151 -27.911785 1.004895
v 122.673012 -28.228905 1.157208
v 122.072510 -29.542362 3.272682
v 114.639565 -29.542353 3.272682
v 128.322784 -37.671391 2.109186
v 129.148453 -37.671394 1.157224
v 127.658333 -41.408566 2.109193
v 127.647224 -37.671387 3.272696
v 127.658318 -33.934212 2.109180
v 128.428970 -33.624611 1.157217
v 128.428970 -41.718174 1.157231
v 127.027809 -41.155254 3.272702
v 127.027809 -34.187523 3.272690
v 118.219292 -47.034145 2.099682
v 113.822365 -46.470734 2.071123
v 118.356041 -46.381046 3.272710
v 122.342735 -46.391464 2.109201
v 117.809067 -47.867603 1.119163
v 111.851166 -47.430969 1.004928
v 114.639565 -45.800400 3.272709
v 122.072510 -45.800407 3.272709
v 122.673012 -47.113869 1.157240
v 107.032028 -37.671371 2.010818
v 107.784256 -33.854916 2.018215
v 109.064842 -37.671368 3.272696
v 107.784256 -41.487827 2.018228
v 102.134590 -37.671371 0.763749
v 103.205147 -33.307484 0.793358
v 109.684258 -34.187500 3.272690
v 109.684258 -41.155239 3.272702
v 103.205147 -42.035263 0.793373
v -8.773417 -11.053633 -0.323580
v -8.490938 -0.846775 -0.248658
v -7.643505 7.666531 -0.023890
v -4.785502 -21.289370 -0.958217
v 0.981909 -21.399790 -1.211545
v 8.713146 -21.731041 -1.125342
v -11.166168 -21.289368 0.734160
v -11.963752 -21.289364 2.003443
v -11.166170 -21.289364 3.272726
v -3.854984 15.200877 -0.023890
v 0.000001 16.324417 -0.173736
v 3.854987 15.200873 -0.023890
v -7.643503 15.200881 0.980959
v -8.208459 16.324423 2.003437
v -7.643503 15.200882 3.025915
v 7.643507 7.666524 -0.023890
v 9.472850 -0.909180 -0.277218
v 12.701063 -11.303234 -0.437818
v 7.643508 15.200871 0.980959
v 8.208463 16.324415 2.003437
v 7.643508 15.200874 3.025915
v 24.685858 -19.234125 0.619914
v 25.948709 -18.341047 2.003431
v 24.685858 -19.234125 3.386950
v -8.773417 -11.053625 4.330458
v -8.490937 -0.846767 4.255533
v -7.643503 7.666537 4.030764
v -4.785503 -21.289364 4.965103
v 0.981909 -21.399782 5.218431
v 8.713147 -21.731033 5.132223
v -3.854982 15.200882 4.030764
v 0.000004 16.324423 4.180609
v 3.854989 15.200877 4.030764
v 7.643508 7.666527 4.030764
v 9.472853 -0.909176 4.284091
v 12.701066 -11.303228 4.444691
v -3.854997 -45.034065 -0.023858
v 1.677639 -45.850368 -0.248626
v 10.565579 -46.122467 -0.323550
v -7.643517 -45.034061 0.980991
v -8.208474 -45.578262 2.003470
v -7.643519 -45.034061 3.025948
v 23.223633 -48.427315 0.734185
v 23.223633 -49.195591 2.003469
v 23.223633 -48.427307 3.272751
v -3.854999 -45.034058 4.030796
v 1.677639 -45.850361 4.255566
v 10.565580 -46.122463 4.330487
v -8.773420 -29.889313 -0.323569
v -8.490946 -36.654190 -0.248639
v -7.643516 -41.384727 -0.023864
v -7.643518 -41.384716 4.030790
v -8.490948 -36.654182 4.255552
v -8.773423 -29.889307 4.330468
v 23.223637 -42.281055 4.965118
v 22.941156 -37.087826 5.218438
v 22.093710 -30.727524 5.132225
v 23.223637 -42.281059 -0.958202
v 22.941154 -37.087830 -1.211538
v 22.093710 -30.727530 -1.125340
v 96.123810 -26.454092 0.875854
v 95.507126 -25.916479 2.067393
v 96.123810 -26.454090 3.386919
v 96.123802 -48.888649 0.875891
v 95.507126 -49.426262 2.067432
v 96.123802 -48.888649 3.386956
v 93.980606 -42.475266 5.132210
v 92.786926 -37.671364 5.260188
v 93.980606 -32.867466 5.132194
v 93.980606 -42.475273 -0.181855
v 92.786919 -37.671371 -0.252731
v 93.980606 -32.867470 -0.181871
v 39.136086 -26.886126 -0.437825
v 59.047550 -28.560038 -0.316723
v 79.049980 -28.913479 -0.181871
v 79.049980 -46.429264 -0.181841
v 59.280174 -46.199169 -0.288136
v 40.066616 -46.122471 -0.323561
v 39.136089 -26.886118 4.444683
v 59.047550 -28.560030 4.387557
v 79.049988 -28.913473 4.444665
v 40.066612 -46.122467 4.330476
v 59.280174 -46.199162 4.359027
v 79.049980 -46.429256 4.444695
v 127.151215 -29.426695 1.157210
v 127.261307 -29.323492 2.109172
v 127.151215 -29.426689 3.272682
v 127.151215 -45.916088 1.157238
v 127.261307 -46.019287 2.109200
v 127.151215 -45.916084 3.272710
v 129.129562 -41.999622 4.330439
v 129.899094 -37.671391 4.330431
v 129.129547 -33.343155 4.330424
v 129.129547 -41.999634 0.734137
v 129.899094 -37.671398 0.734130
v 129.129562 -33.343159 0.734123
v 109.734444 -48.438328 0.505679
v 117.354950 -48.658905 0.677031
v 122.973259 -47.770603 0.734147
v 122.973259 -47.770596 4.330448
v 117.354950 -48.658897 4.359009
v 109.734444 -48.438328 4.444687
v 122.973259 -27.572170 4.330415
v 117.354950 -26.683855 4.358972
v 109.734444 -26.904423 4.444651
v 122.973259 -27.572176 0.734113
v 117.354950 -26.683865 0.676994
v 109.734444 -26.904428 0.505643
v 109.964500 -41.042656 4.330437
v 109.365097 -37.671368 4.330431
v 109.964500 -34.300083 4.330425
v 126.747581 -41.042667 4.330437
v 127.346970 -37.671387 4.330431
v 126.747581 -34.300102 4.330426
v 121.952415 -45.537712 4.330444
v 118.356041 -46.099586 4.330445
v 114.759659 -45.537704 4.330444
v 121.952415 -29.805050 4.330419
v 118.356041 -29.243168 4.330418
v 114.759659 -29.805040 4.330419
v 106.437225 -29.776606 5.132184
v 110.046005 -30.700960 5.218390
v 111.542503 -31.284281 4.965062
v 125.169571 -31.284296 4.965062
v 125.664986 -30.819895 5.176608
v 126.270485 -30.252291 4.965060
v 125.169571 -44.058475 4.965084
v 125.664986 -44.522877 5.176631
v 126.270485 -45.090477 4.965085
v 106.437210 -45.566132 5.132210
v 110.045990 -44.641777 5.218412
v 111.542503 -44.058460 4.965084
v 126.270485 -30.252295 1.157212
v 125.664986 -30.819899 2.109175
v 125.169571 -31.284300 3.272685
v 106.437210 -29.776615 0.875855
v 110.045990 -30.700966 2.038836
v 111.542503 -31.284281 3.272685
v 126.270485 -45.090485 1.157237
v 125.664986 -44.522877 2.109198
v 125.169571 -44.058475 3.272707
v 106.437210 -45.566135 0.875881
v 110.045990 -44.641781 2.038859
v 111.542503 -44.058464 3.272707
v -8.773418 -21.289370 -0.323576
v -6.498826 12.924418 0.279719
v 6.498827 12.924413 0.279719
v 19.925920 -22.578384 -0.656981
v -8.773419 -21.289364 4.330462
v -6.498824 12.924423 3.727154
v 6.498830 12.924416 3.727154
v 19.925924 -22.578379 4.663854
v -6.498838 -43.931435 0.279750
v 23.223637 -46.122467 -0.323555
v -6.498839 -43.931431 3.727185
v 23.223637 -46.122467 4.330483
v 98.532715 -28.364925 0.067322
v 98.532715 -28.364918 4.663819
v 98.532715 -46.977825 0.067353
v 98.532715 -46.977821 4.663850
v 126.820938 -29.736292 0.734117
v 126.820938 -29.736290 4.330418
v 126.820938 -45.606487 0.734143
v 126.820938 -45.606480 4.330445
v 111.762688 -43.852058 4.330441
v 111.762688 -31.490683 4.330421
v 124.949394 -43.852074 4.330441
v 124.949394 -31.490698 4.330421
vn -0.0444 0.0097 -0.9990
vn -0.1579 0.0113 -0.9874
vn -0.0433 -0.0000 -0.9991
vn -0.1572 -0.0000 -0.9876
vn -0.0497 0.0314 -0.9983
vn -0.0620 0.0799 -0.9949
vn -0.1652 0.0395 -0.9855
vn -0.1876 0.0874 -0.9784
vn 0.0396 0.0376 -0.9985
vn 0.1410 0.0593 -0.9882
vn 0.0572 0.0829 -0.9949
vn 0.1741 0.0945 -0.9802
vn 0.0385 0.0123 -0.9992
vn 0.0243 0.0033 -0.9997
vn 0.1404 0.0375 -0.9894
vn 0.1024 0.0264 -0.9944
vn -0.0432 0.0092 0.9990
vn -0.0439 0.0003 0.9990
vn -0.1579 0.0113 0.9874
vn -0.1572 0.0000 0.9876
vn 0.0385 0.0123 0.9992
vn 0.1404 0.0375 0.9894
vn 0.0243 0.0033 0.9997
vn 0.1024 0.0264 0.9944
vn 0.0499 0.0328 0.9982
vn 0.0620 0.0799 0.9949
vn 0.1671 0.0512 0.9846
vn 0.1876 0.0874 0.9784
vn -0.0451 0.0337 0.9984
vn -0.1589 0.0419 0.9864
vn -0.0572 0.0829 0.9949
vn -0.1741 0.0945 0.9802
vn -0.8435 0.0302 -0.5363
vn -0.8467 0.0000 -0.5321
vn -0.4026 0.0174 -0.9152
vn -0.4043 -0.0000 -0.9146
vn -0.8435 0.0302 0.5363
vn -0.4026 0.0174 0.9152
vn -0.8467 0.0000 0.5321
vn -0.4043 0.0000 0.9146
vn -0.8121 0.0972 0.5754
vn -0.7302 0.2212 0.6465
vn -0.3864 0.0584 0.9205
vn -0.3422 0.1152 0.9325
vn -0.8347 0.1063 -0.5404
vn -0.3993 0.0639 -0.9146
vn -0.7525 0.2363 -0.6148
vn -0.3650 0.1327 -0.9215
vn -0.1936 0.5784 -0.7925
vn -0.5092 0.4250 -0.7484
vn -0.0897 0.2080 -0.9740
vn -0.2348 0.1764 -0.9559
vn -0.2202 0.6058 0.7645
vn -0.1004 0.2151 0.9714
vn -0.5455 0.4393 0.7138
vn -0.2704 0.1881 0.9442
vn 0.1936 0.5784 0.7925
vn 0.5092 0.4250 0.7484
vn 0.0897 0.2080 0.9740
vn 0.2348 0.1764 0.9559
vn 0.2202 0.6058 -0.7645
vn 0.1004 0.2151 -0.9714
vn 0.5455 0.4393 -0.7138
vn 0.2704 0.1881 -0.9442
vn 0.7667 0.2070 -0.6077
vn 0.7302 0.2212 -0.6465
vn 0.3557 0.1081 -0.9283
vn 0.3422 0.1152 -0.9325
vn 0.7777 0.2132 0.5913
vn 0.3557 0.1081 0.9283
vn 0.7525 0.2363 0.6148
vn 0.3650 0.1327 0.9215
vn 0.6576 0.2984 0.6918
vn 0.4678 0.4841 0.7395
vn 0.2740 0.1223 0.9539
vn 0.1532 0.1546 0.9760
vn 0.7440 0.3125 -0.5906
vn 0.3532 0.1240 -0.9273
vn 0.5294 0.5225 -0.6684
vn 0.2593 0.1846 -0.9480
vn -0.8434 -0.0459 0.5353
vn -0.4028 -0.0264 0.9149
vn -0.8434 -0.0459 -0.5353
vn -0.4028 -0.0264 -0.9149
vn -0.8062 -0.1759 -0.5649
vn -0.6987 -0.4369 -0.5665
vn -0.3866 -0.1058 -0.9162
vn -0.3350 -0.2329 -0.9130
vn -0.8248 -0.1903 0.5324
vn -0.3979 -0.1145 0.9102
vn -0.6987 -0.4369 0.5665
vn -0.3550 -0.2664 0.8961
vn -0.1491 -0.8218 0.5499
vn -0.4039 -0.6961 0.5936
vn -0.0908 -0.4009 0.9116
vn -0.2238 -0.3469 0.9108
vn -0.1602 -0.8388 -0.5203
vn -0.0975 -0.4117 -0.9061
vn -0.4273 -0.7105 -0.5592
vn -0.2560 -0.3677 -0.8940
vn -0.0342 -0.8529 -0.5209
vn -0.0000 -0.8555 -0.5178
vn -0.0200 -0.4158 -0.9092
vn -0.0000 -0.4171 -0.9089
vn -0.0342 -0.8529 0.5209
vn -0.0200 -0.4158 0.9092
vn 0.0000 -0.8555 0.5178
vn 0.0000 -0.4171 0.9089
vn -0.0008 -0.0112 0.9999
vn 0.0113 0.0039 0.9999
vn 0.0098 0.0002 1.0000
vn 0.0432 0.0199 0.9989
vn -0.0497 -0.0125 0.9987
vn -0.1578 -0.0171 0.9873
vn -0.0468 0.0020 0.9989
vn -0.0533 -0.0584 0.9969
vn -0.0609 -0.1642 0.9845
vn -0.1640 -0.0714 0.9839
vn -0.1853 -0.1782 0.9664
vn -0.0092 -0.0571 0.9983
vn 0.0018 -0.0531 0.9986
vn -0.0131 -0.1630 0.9865
vn 0.0000 -0.1630 0.9866
vn 0.0047 -0.0465 -0.9989
vn 0.0006 -0.0487 -0.9988
vn 0.0031 -0.1630 -0.9866
vn -0.0000 -0.1630 -0.9866
vn 0.0058 0.0363 -0.9993
vn 0.0130 0.1416 -0.9898
vn 0.0018 0.0279 -0.9996
vn 0.0126 0.1217 -0.9925
vn 0.0144 0.0362 -0.9992
vn 0.0370 0.0224 -0.9991
vn 0.0126 0.1416 -0.9898
vn 0.0318 0.1199 -0.9923
vn 0.0141 -0.0409 -0.9991
vn 0.0093 -0.1534 -0.9881
vn 0.0370 -0.0224 -0.9991
vn 0.0318 -0.1199 -0.9923
vn -0.0497 -0.0125 -0.9987
vn -0.0468 0.0020 -0.9989
vn -0.1578 -0.0172 -0.9873
vn -0.0087 -0.0014 -1.0000
vn 0.0025 0.0139 -0.9999
vn -0.0001 0.0142 -0.9999
vn 0.0125 0.0607 -0.9981
vn -0.0092 -0.0571 -0.9983
vn -0.0133 -0.1636 -0.9864
vn 0.0018 -0.0531 -0.9986
vn -0.0506 -0.0615 -0.9968
vn -0.1584 -0.0752 -0.9845
vn -0.0609 -0.1642 -0.9845
vn -0.1716 -0.1923 -0.9662
vn 0.0238 -0.9638 0.2655
vn -0.0140 -0.9237 0.3829
vn 0.0100 -0.8089 0.5878
vn -0.0133 -0.5439 0.8390
vn 0.0099 -0.9807 -0.1953
vn -0.0014 -0.6426 -0.7662
vn -0.0243 -0.9469 -0.3207
vn -0.0298 -0.4899 -0.8713
vn 0.1705 -0.9746 -0.1452
vn 0.4847 -0.8618 -0.1495
vn 0.1178 -0.6731 -0.7301
vn 0.3431 -0.6100 -0.7142
vn 0.1702 -0.9741 0.1491
vn 0.1446 -0.9013 0.4084
vn 0.4865 -0.8650 0.1228
vn 0.4539 -0.8070 0.3779
vn 0.1033 0.8466 -0.5221
vn 0.2353 0.7351 -0.6358
vn 0.0469 0.3942 -0.9178
vn 0.1038 0.3259 -0.9397
vn 0.1032 0.8497 0.5171
vn 0.0463 0.4038 0.9137
vn 0.2353 0.7351 0.6358
vn 0.1038 0.3259 0.9397
vn 0.0298 0.8561 0.5159
vn -0.0075 0.8907 0.4546
vn 0.0100 0.4065 0.9136
vn -0.0086 0.4447 0.8957
vn 0.0311 0.8530 -0.5209
vn 0.0132 0.3967 -0.9178
vn -0.0058 0.8808 -0.4735
vn -0.0016 0.4047 -0.9144
vn 0.0007 0.0383 0.9993
vn 0.0018 0.0279 0.9996
vn 0.0088 0.1471 0.9891
vn 0.0126 0.1217 0.9925
vn -0.0011 -0.0436 0.9990
vn -0.0021 -0.1597 0.9872
vn 0.0000 -0.0467 0.9989
vn -0.0015 -0.0436 0.9990
vn -0.0030 -0.0365 0.9993
vn -0.0042 -0.1598 0.9871
vn -0.0056 -0.1508 0.9885
vn -0.0011 0.0383 0.9993
vn -0.0007 0.1475 0.9891
vn -0.0030 0.0365 0.9993
vn -0.0056 0.1508 0.9885
vn -0.0014 -0.8555 0.5178
vn -0.0020 -0.4171 0.9089
vn -0.0019 -0.8619 -0.5070
vn 0.0000 -0.4142 -0.9102
vn -0.0028 -0.8619 -0.5071
vn -0.0058 -0.8808 -0.4735
vn -0.0012 -0.4141 -0.9102
vn -0.0016 -0.4047 -0.9144
vn -0.0041 -0.8648 0.5022
vn -0.0060 -0.4239 0.9057
vn -0.0075 -0.8907 0.4546
vn -0.0086 -0.4446 0.8957
vn 0.9729 0.1730 -0.1534
vn 0.8322 0.5327 -0.1540
vn 0.6797 0.1208 -0.7235
vn 0.5803 0.3714 -0.7248
vn 0.9767 0.1737 0.1260
vn 0.9080 0.1614 0.3866
vn 0.8355 0.5348 0.1265
vn 0.7763 0.4969 0.3878
vn 0.9767 -0.1737 0.1260
vn 0.8355 -0.5348 0.1265
vn 0.9080 -0.1614 0.3866
vn 0.7763 -0.4969 0.3878
vn 0.9729 -0.1730 -0.1534
vn 0.6797 -0.1208 -0.7235
vn 0.8322 -0.5327 -0.1540
vn 0.5803 -0.3714 -0.7248
vn 0.0425 0.2499 0.9673
vn 0.1071 0.6535 0.7493
vn 0.1266 0.2250 0.9661
vn 0.3243 0.5765 0.7500
vn -0.0248 0.2187 0.9755
vn -0.0359 0.0865 0.9956
vn -0.0368 0.6064 0.7943
vn -0.1015 0.3403 0.9348
vn 0.0477 -0.3050 0.9511
vn 0.1414 -0.9050 0.4013
vn 0.1118 -0.1987 0.9737
vn 0.4465 -0.7938 0.4130
vn -0.0483 -0.3169 0.9472
vn -0.1522 -0.2706 0.9506
vn -0.1414 -0.9050 0.4013
vn -0.4465 -0.7938 0.4130
vn 0.0244 0.9524 -0.3040
vn -0.0123 0.9090 -0.4165
vn 0.0152 0.5408 -0.8410
vn -0.0017 0.3878 -0.9217
vn 0.0085 0.9866 0.1632
vn -0.0209 0.8945 0.4466
vn -0.0272 0.9593 0.2809
vn -0.0852 0.7515 0.6542
vn 0.1702 0.9741 0.1491
vn 0.4865 0.8650 0.1228
vn 0.1554 0.9167 0.3680
vn 0.4539 0.8070 0.3779
vn 0.1643 0.9699 -0.1794
vn 0.1178 0.6731 -0.7301
vn 0.4847 0.8618 -0.1495
vn 0.3431 0.6100 -0.7142
vn 0.2480 -0.0441 0.9678
vn 0.6414 -0.1140 0.7587
vn 0.2114 -0.1353 0.9680
vn 0.5475 -0.3505 0.7599
vn 0.2480 0.0441 0.9678
vn 0.2114 0.1353 0.9680
vn 0.6414 0.1140 0.7587
vn 0.5475 0.3505 0.7599
vn -0.2984 -0.0531 0.9530
vn -0.8925 -0.1587 0.4222
vn -0.2544 -0.1628 0.9533
vn -0.7630 -0.4884 0.4235
vn -0.2984 0.0531 0.9530
vn -0.2544 0.1628 0.9533
vn -0.8925 0.1587 0.4222
vn -0.7630 0.4884 0.4235
vn 0.0112 0.0128 0.9999
vn -0.0064 0.0282 0.9996
vn 0.0045 0.0300 0.9995
vn -0.0077 0.1111 0.9938
vn 0.0014 -0.0042 1.0000
vn -0.0181 -0.0225 0.9996
vn -0.0122 -0.0185 0.9998
vn -0.0455 -0.0757 0.9961
vn 0.1461 0.0244 0.9890
vn 0.8925 0.1587 0.4222
vn 0.1324 0.0855 0.9875
vn 0.7630 0.4884 0.4235
vn 0.1461 -0.0244 0.9890
vn 0.1324 -0.0855 0.9875
vn 0.8925 -0.1587 0.4222
vn 0.7630 -0.4883 0.4235
vn -0.0248 -0.2186 0.9755
vn -0.0368 -0.6064 0.7943
vn -0.0359 -0.0865 0.9956
vn -0.1015 -0.3403 0.9348
vn 0.0421 -0.2630 0.9639
vn 0.1266 -0.2250 0.9661
vn 0.1060 -0.6655 0.7388
vn 0.3243 -0.5765 0.7500
vn -0.0505 0.3235 0.9449
vn -0.1414 0.9050 0.4013
vn -0.1522 0.2706 0.9506
vn -0.4465 0.7938 0.4130
vn 0.0392 0.2819 0.9586
vn 0.0944 0.1828 0.9786
vn 0.1414 0.9050 0.4013
vn 0.4465 0.7938 0.4130
vn 0.0988 -0.7374 -0.6682
vn 0.0510 -0.4647 -0.8840
vn 0.2336 -0.4673 -0.8527
vn 0.1086 -0.2488 -0.9625
vn -0.1187 -0.7707 -0.6260
vn -0.3769 -0.6702 -0.6393
vn -0.0733 -0.5162 -0.8533
vn -0.2485 -0.4418 -0.8620
vn -0.1363 -0.8722 -0.4697
vn -0.1493 -0.9555 -0.2543
vn -0.4283 -0.7616 -0.4864
vn -0.4730 -0.8410 -0.2626
vn 0.1104 -0.8341 -0.5404
vn 0.3191 -0.6467 -0.6928
vn 0.1493 -0.9555 -0.2543
vn 0.4730 -0.8410 -0.2626
vn -0.7487 -0.1331 -0.6494
vn -0.4892 -0.0870 -0.8678
vn -0.6395 -0.4093 -0.6508
vn -0.4173 -0.2671 -0.8686
vn -0.7487 0.1331 -0.6494
vn -0.6395 0.4093 -0.6508
vn -0.4892 0.0870 -0.8678
vn -0.4173 0.2671 -0.8686
vn -0.8548 0.1520 -0.4963
vn -0.9482 0.1686 -0.2692
vn -0.7305 0.4676 -0.4977
vn -0.8109 0.5191 -0.2701
vn -0.8548 -0.1520 -0.4963
vn -0.7305 -0.4676 -0.4977
vn -0.9482 -0.1686 -0.2692
vn -0.8109 -0.5191 -0.2701
vn 0.0988 0.7374 -0.6682
vn 0.2336 0.4673 -0.8527
vn 0.0510 0.4647 -0.8840
vn 0.1086 0.2488 -0.9625
vn 0.1342 0.8591 -0.4939
vn 0.1493 0.9555 -0.2543
vn 0.3791 0.6741 -0.6339
vn 0.4730 0.8410 -0.2626
vn -0.1346 0.8705 -0.4735
vn -0.4283 0.7616 -0.4864
vn -0.1493 0.9555 -0.2543
vn -0.4730 0.8410 -0.2626
vn -0.1161 0.7802 -0.6146
vn -0.0733 0.5182 -0.8521
vn -0.3769 0.6702 -0.6394
vn -0.2485 0.4418 -0.8620
vn 0.2528 -0.0479 -0.9663
vn 0.2597 -0.1800 -0.9488
vn 0.1042 -0.0188 -0.9944
vn 0.0910 -0.0600 -0.9940
vn 0.5247 -0.1018 -0.8452
vn 0.9482 -0.1686 -0.2692
vn 0.4770 -0.3368 -0.8118
vn 0.8109 -0.5191 -0.2701
vn 0.5247 0.1018 -0.8452
vn 0.4770 0.3368 -0.8118
vn 0.9482 0.1686 -0.2692
vn 0.8109 0.5191 -0.2701
vn 0.2464 0.0539 -0.9677
vn 0.1081 0.0122 -0.9941
vn 0.2324 0.1904 -0.9538
vn 0.1027 0.0488 -0.9935
vn -0.0432 0.0092 -0.9990
vn -0.1572 0.0116 -0.9875
vn -0.0439 0.0003 -0.9990
vn -0.0451 0.0337 -0.9984
vn -0.0572 0.0829 -0.9949
vn -0.1589 0.0419 -0.9864
vn -0.1741 0.0945 -0.9802
vn 0.0499 0.0328 -0.9982
vn 0.1671 0.0512 -0.9846
vn 0.0620 0.0799 -0.9949
vn 0.1876 0.0874 -0.9784
vn 0.0248 0.0184 -0.9995
vn 0.0116 0.0108 -0.9999
vn 0.1022 0.0471 -0.9936
vn 0.0453 0.0484 -0.9978
vn -0.0444 0.0097 0.9990
vn -0.0433 0.0000 0.9991
vn -0.1572 0.0116 0.9875
vn 0.0248 0.0184 0.9995
vn 0.1022 0.0471 0.9936
vn 0.0116 0.0108 0.9999
vn 0.0453 0.0484 0.9978
vn 0.0396 0.0376 0.9985
vn 0.0572 0.0829 0.9949
vn 0.1410 0.0593 0.9882
vn 0.1741 0.0945 0.9802
vn -0.0497 0.0314 0.9983
vn -0.1652 0.0395 0.9855
vn -0.0620 0.0799 0.9949
vn -0.1876 0.0874 0.9784
vn -0.8463 0.0311 -0.5318
vn -0.4043 0.0179 -0.9145
vn -0.8463 0.0311 0.5318
vn -0.4043 0.0179 0.9145
vn -0.8347 0.1063 0.5404
vn -0.7525 0.2363 0.6148
vn -0.3993 0.0639 0.9146
vn -0.3650 0.1327 0.9215
vn -0.8121 0.0972 -0.5754
vn -0.3864 0.0584 -0.9205
vn -0.7302 0.2212 -0.6465
vn -0.3422 0.1152 -0.9325
vn -0.2202 0.6058 -0.7645
vn -0.5455 0.4393 -0.7138
vn -0.1004 0.2151 -0.9714
vn -0.2704 0.1881 -0.9442
vn -0.1936 0.5784 0.7925
vn -0.0897 0.2080 0.9740
vn -0.5092 0.4250 0.7484
vn -0.2348 0.1764 0.9559
vn 0.2202 0.6058 0.7645
vn 0.5455 0.4393 0.7138
vn 0.1004 0.2151 0.9714
vn 0.2704 0.1881 0.9442
vn 0.1936 0.5784 -0.7925
vn 0.0897 0.2080 -0.9740
vn 0.5092 0.4250 -0.7484
vn 0.2348 0.1764 -0.9559
vn 0.7777 0.2132 -0.5913
vn 0.7525 0.2363 -0.6148
vn 0.3728 0.1067 -0.9218
vn 0.3650 0.1327 -0.9215
vn 0.7667 0.2070 0.6077
vn 0.3728 0.1067 0.9218
vn 0.7302 0.2212 0.6465
vn 0.3422 0.1152 0.9325
vn 0.7440 0.3125 0.5906
vn 0.5294 0.5225 0.6684
vn 0.3532 0.1240 0.9273
vn 0.2593 0.1846 0.9480
vn 0.6576 0.2984 -0.6918
vn 0.2740 0.1223 -0.9539
vn 0.4678 0.4841 -0.7395
vn 0.1532 0.1546 -0.9760
vn -0.8458 -0.0470 0.5315
vn -0.4042 -0.0270 0.9143
vn -0.8458 -0.0470 -0.5315
vn -0.4042 -0.0270 -0.9143
vn -0.8248 -0.1903 -0.5324
vn -0.6696 -0.4354 -0.6017
vn -0.3979 -0.1145 -0.9102
vn -0.3550 -0.2664 -0.8961
vn -0.8062 -0.1759 0.5649
vn -0.3866 -0.1058 0.9162
vn -0.6696 -0.4354 0.6017
vn -0.3350 -0.2329 0.9130
vn -0.1602 -0.8388 0.5203
vn -0.4273 -0.7104 0.5592
vn -0.0975 -0.4116 0.9061
vn -0.2560 -0.3677 0.8940
vn -0.1491 -0.8218 -0.5499
vn -0.0908 -0.4009 -0.9116
vn -0.4039 -0.6961 -0.5936
vn -0.2238 -0.3469 -0.9108
vn -0.0349 -0.8550 -0.5175
vn -0.0204 -0.4170 -0.9087
vn -0.0349 -0.8550 0.5175
vn -0.0204 -0.4170 0.9087
vn -0.0087 -0.0013 1.0000
vn -0.0001 0.0142 0.9999
vn 0.0025 0.0139 0.9999
vn 0.0125 0.0607 0.9981
vn -0.0470 -0.0148 0.9988
vn -0.1571 -0.0175 0.9874
vn -0.0439 0.0000 0.9990
vn -0.0506 -0.0615 0.9968
vn -0.0650 -0.1699 0.9833
vn -0.1584 -0.0752 0.9845
vn -0.1716 -0.1923 0.9662
vn -0.0114 -0.0535 0.9985
vn 0.0000 -0.0487 0.9988
vn -0.0133 -0.1636 0.9864
vn 0.0035 -0.0414 -0.9991
vn -0.0000 -0.0467 -0.9989
vn 0.0012 -0.1539 -0.9881
vn 0.0077 0.0285 -0.9996
vn 0.0163 0.1218 -0.9924
vn 0.0062 0.0144 -0.9999
vn 0.0258 0.0642 -0.9976
vn 0.0117 0.0263 -0.9996
vn 0.0319 0.0068 -0.9995
vn 0.0089 0.1251 -0.9921
vn 0.0115 0.0436 -0.9990
vn 0.0104 -0.0265 -0.9996
vn 0.0039 -0.1263 -0.9920
vn 0.0319 -0.0068 -0.9995
vn 0.0115 -0.0436 -0.9990
vn -0.0470 -0.0148 -0.9988
vn -0.0439 -0.0000 -0.9990
vn -0.1571 -0.0175 -0.9874
vn -0.0008 -0.0113 -0.9999
vn 0.0098 0.0002 -1.0000
vn 0.0113 0.0039 -0.9999
vn 0.0432 0.0199 -0.9989
vn -0.0114 -0.0535 -0.9985
vn -0.0131 -0.1630 -0.9865
vn -0.0000 -0.0487 -0.9988
vn -0.0533 -0.0584 -0.9969
vn -0.1640 -0.0714 -0.9839
vn -0.0650 -0.1699 -0.9833
vn -0.1853 -0.1782 -0.9664
vn 0.0085 -0.9866 0.1632
vn -0.0272 -0.9593 0.2809
vn -0.0209 -0.8945 0.4466
vn -0.0852 -0.7516 0.6542
vn 0.0244 -0.9524 -0.3040
vn 0.0152 -0.5408 -0.8410
vn -0.0123 -0.9090 -0.4165
vn -0.0017 -0.3878 -0.9217
vn 0.1643 -0.9700 -0.1794
vn 0.1180 -0.7011 -0.7032
vn 0.1651 -0.9791 0.1191
vn 0.1554 -0.9168 0.3680
vn 0.0902 0.7984 -0.5953
vn 0.2237 0.7131 -0.6645
vn 0.0350 0.3484 -0.9367
vn 0.0707 0.2664 -0.9613
vn 0.0892 0.7988 0.5950
vn 0.0320 0.3493 0.9365
vn 0.2237 0.7131 0.6645
vn 0.0707 0.2664 0.9613
vn 0.0250 0.8945 0.4464
vn -0.0145 0.9236 0.3831
vn 0.0053 0.4459 0.8951
vn -0.0245 0.5339 0.8452
vn 0.0271 0.8850 -0.4649
vn 0.0147 0.4062 -0.9137
vn -0.0115 0.9092 -0.4162
vn 0.0008 0.3905 -0.9206
vn 0.0033 0.0280 0.9996
vn 0.0062 0.0144 0.9999
vn 0.0131 0.1217 0.9925
vn 0.0258 0.0642 0.9976
vn -0.0003 -0.0467 0.9989
vn -0.0014 -0.1630 0.9866
vn 0.0006 -0.0487 0.9988
vn -0.0033 -0.0365 0.9993
vn -0.0057 -0.0281 0.9996
vn -0.0060 -0.1509 0.9885
vn -0.0145 -0.1179 0.9929
vn -0.0017 0.0363 0.9993
vn -0.0002 0.1496 0.9887
vn -0.0057 0.0281 0.9996
vn -0.0145 0.1179 0.9929
vn -0.0028 -0.8648 0.5021
vn -0.0030 -0.4240 0.9057
vn -0.0009 -0.8555 -0.5178
vn -0.0004 -0.4171 -0.9089
vn -0.0115 -0.9092 -0.4162
vn 0.0002 -0.4049 -0.9144
vn 0.0008 -0.3905 -0.9206
vn -0.0083 -0.8905 0.4548
vn -0.0091 -0.4446 0.8957
vn -0.0145 -0.9236 0.3831
vn -0.0245 -0.5339 0.8452
vn 0.7763 -0.4969 0.3879
vn 0.0421 0.2630 0.9639
vn 0.1060 0.6655 0.7388
vn -0.0019 0.1550 0.9879
vn -0.0065 0.0676 0.9977
vn -0.0048 0.5021 0.8648
vn -0.0133 0.2472 0.9689
vn 0.0392 -0.2819 0.9586
vn 0.0944 -0.1828 0.9786
vn 0.4465 -0.7938 0.4131
vn -0.0505 -0.3235 0.9449
vn 0.0099 0.9807 -0.1953
vn -0.0243 0.9469 -0.3207
vn -0.0014 0.6426 -0.7662
vn -0.0298 0.4899 -0.8713
vn 0.0238 0.9638 0.2655
vn 0.0100 0.8089 0.5878
vn -0.0140 0.9237 0.3829
vn -0.0133 0.5439 0.8390
vn 0.1651 0.9791 0.1190
vn 0.1446 0.9013 0.4084
vn 0.1705 0.9746 -0.1452
vn 0.1180 0.7011 -0.7032
vn 0.2479 -0.0441 0.9678
vn -0.7630 -0.4883 0.4235
vn 0.0014 0.0042 1.0000
vn -0.0122 0.0185 0.9998
vn -0.0181 0.0225 0.9996
vn -0.0455 0.0757 0.9961
vn 0.0112 -0.0128 0.9999
vn 0.0045 -0.0300 0.9995
vn -0.0064 -0.0282 0.9996
vn -0.0077 -0.1111 0.9938
vn 0.1432 0.0255 0.9894
vn 0.1338 0.0856 0.9873
vn 0.1432 -0.0255 0.9894
vn 0.1338 -0.0856 0.9873
vn 0.7630 -0.4884 0.4235
vn -0.0019 -0.1550 0.9879
vn -0.0048 -0.5020 0.8648
vn -0.0065 -0.0676 0.9977
vn -0.0133 -0.2472 0.9689
vn 0.0425 -0.2499 0.9673
vn 0.1071 -0.6535 0.7493
vn -0.0483 0.3169 0.9472
vn 0.0477 0.3050 0.9511
vn 0.1118 0.1987 0.9737
vn 0.0638 -0.6800 -0.7304
vn 0.0320 -0.3891 -0.9206
vn 0.1720 -0.4384 -0.8822
vn 0.0643 -0.1999 -0.9777
vn -0.1161 -0.7802 -0.6146
vn -0.0733 -0.5182 -0.8521
vn -0.1346 -0.8705 -0.4735
vn 0.1342 -0.8591 -0.4939
vn 0.3791 -0.6741 -0.6339
vn 0.0638 0.6800 -0.7304
vn 0.1720 0.4384 -0.8822
vn 0.0320 0.3891 -0.9206
vn 0.0643 0.1999 -0.9777
vn 0.1104 0.8341 -0.5404
vn 0.3191 0.6467 -0.6928
vn -0.1363 0.8722 -0.4697
vn -0.1187 0.7707 -0.6260
vn -0.0733 0.5162 -0.8533
vn 0.2464 -0.0539 -0.9677
vn 0.2324 -0.1904 -0.9538
vn 0.1081 -0.0122 -0.9941
vn 0.1027 -0.0488 -0.9935
vn 0.5368 -0.0954 -0.8383
vn 0.5194 -0.3325 -0.7872
vn 0.5368 0.0954 -0.8383
vn 0.5194 0.3325 -0.7872
vn 0.2528 0.0479 -0.9663
vn 0.1042 0.0188 -0.9944
vn 0.2597 0.1800 -0.9488
vn 0.0910 0.0600 -0.9940
usemtl Material
s off
f 1//1 6//1 2//1
f 6//2 218//2 2//2
f 5//3 220//3 6//3
f 220//4 217//4 6//4
f 1//5 7//5 3//5
f 3//6 226//6 227//6
f 2//7 219//7 7//7
f 7//8 362//8 226//8
f 1//9 8//9 4//9
f 4//10 232//10 233//10
f 3//11 228//11 8//11
f 8//12 363//12 232//12
f 4//13 5//13 1//13
f 9//14 221//14 5//14
f 233//15 9//15 4//15
f 234//16 222//16 9//16
f 10//17 15//17 11//17
f 11//18 244//18 245//18
f 242//19 15//19 14//19
f 15//20 365//20 244//20
f 11//21 12//21 10//21
f 16//22 251//22 12//22
f 245//23 16//23 11//23
f 246//24 252//24 16//24
f 10//25 17//25 13//25
f 13//26 249//26 248//26
f 12//27 250//27 17//27
f 17//28 367//28 249//28
f 10//29 18//29 14//29
f 14//30 243//30 242//30
f 13//31 247//31 18//31
f 18//32 366//32 243//32
f 23//33 20//33 19//33
f 20//34 223//34 224//34
f 218//35 24//35 23//35
f 24//36 361//36 223//36
f 20//37 21//37 19//37
f 25//38 242//38 21//38
f 224//39 25//39 20//39
f 225//40 241//40 25//40
f 19//41 26//41 22//41
f 22//42 231//42 230//42
f 21//43 243//43 26//43
f 26//44 366//44 231//44
f 19//45 27//45 23//45
f 23//46 219//46 218//46
f 22//47 229//47 27//47
f 27//48 362//48 219//48
f 28//49 33//49 29//49
f 29//50 229//50 230//50
f 32//51 226//51 33//51
f 33//52 362//52 229//52
f 28//53 34//53 30//53
f 30//54 247//54 248//54
f 29//55 231//55 34//55
f 34//56 366//56 247//56
f 28//57 35//57 31//57
f 31//58 237//58 236//58
f 30//59 249//59 35//59
f 35//60 367//60 237//60
f 28//61 36//61 32//61
f 32//62 228//62 227//62
f 31//63 235//63 36//63
f 36//64 363//64 228//64
f 37//65 42//65 38//65
f 38//66 235//66 236//66
f 233//67 42//67 41//67
f 42//68 363//68 235//68
f 37//69 43//69 39//69
f 43//70 251//70 39//70
f 38//71 237//71 43//71
f 43//72 367//72 250//72
f 37//73 44//73 40//73
f 40//74 240//74 239//74
f 39//75 252//75 44//75
f 44//76 368//76 240//76
f 37//77 45//77 41//77
f 41//78 234//78 233//78
f 40//79 238//79 45//79
f 45//80 364//80 234//80
f 50//81 47//81 46//81
f 47//39 225//39 224//39
f 269//82 51//82 50//82
f 51//40 365//40 225//40
f 47//83 48//83 46//83
f 52//84 266//84 48//84
f 224//34 52//34 47//34
f 223//36 265//36 52//36
f 46//85 53//85 49//85
f 53//86 257//86 49//86
f 48//87 267//87 53//87
f 53//88 369//88 256//88
f 46//89 54//89 50//89
f 50//90 268//90 269//90
f 257//91 54//91 49//91
f 54//92 371//92 268//92
f 55//93 60//93 56//93
f 56//94 258//94 257//94
f 59//95 262//95 60//95
f 60//96 371//96 258//96
f 55//97 61//97 57//97
f 57//98 253//98 254//98
f 56//99 256//99 61//99
f 61//100 369//100 253//100
f 57//101 58//101 55//101
f 62//102 260//102 58//102
f 254//103 62//103 57//103
f 255//104 259//104 62//104
f 58//105 59//105 55//105
f 63//106 263//106 59//106
f 58//107 261//107 63//107
f 63//108 372//108 264//108
f 64//109 69//109 65//109
f 65//110 246//110 245//110
f 68//111 273//111 69//111
f 69//112 368//112 246//112
f 65//113 66//113 64//113
f 70//114 269//114 66//114
f 245//115 70//115 65//115
f 244//20 270//20 70//20
f 64//116 71//116 67//116
f 71//117 263//117 67//117
f 66//118 268//118 71//118
f 71//119 371//119 262//119
f 67//120 68//120 64//120
f 72//121 272//121 68//121
f 67//122 264//122 72//122
f 264//123 271//123 72//123
f 73//124 78//124 74//124
f 74//125 274//125 275//125
f 77//126 294//126 78//126
f 294//127 274//127 78//127
f 74//128 75//128 73//128
f 79//129 290//129 75//129
f 275//130 79//130 74//130
f 276//131 289//131 79//131
f 75//132 76//132 73//132
f 80//133 287//133 76//133
f 290//134 80//134 75//134
f 291//135 288//135 80//135
f 76//136 77//136 73//136
f 81//137 293//137 77//137
f 287//138 81//138 76//138
f 286//139 292//139 81//139
f 86//140 83//140 82//140
f 87//141 221//141 83//141
f 266//142 87//142 86//142
f 87//4 361//4 220//4
f 82//143 88//143 84//143
f 84//144 276//144 275//144
f 83//145 222//145 88//145
f 88//146 364//146 276//146
f 84//147 85//147 82//147
f 85//148 255//148 254//148
f 275//149 89//149 84//149
f 89//127 370//127 255//127
f 82//150 90//150 86//150
f 86//151 267//151 266//151
f 254//152 90//152 85//152
f 90//153 369//153 267//153
f 91//154 96//154 92//154
f 92//155 282//155 281//155
f 95//156 318//156 96//156
f 96//157 376//157 282//157
f 91//158 97//158 93//158
f 93//159 313//159 314//159
f 92//160 280//160 97//160
f 97//161 375//161 313//161
f 91//162 98//162 94//162
f 94//163 304//163 305//163
f 314//164 98//164 93//164
f 98//165 379//165 304//165
f 94//166 95//166 91//166
f 95//167 316//167 317//167
f 94//168 306//168 99//168
f 99//169 380//169 316//169
f 104//170 101//170 100//170
f 105//171 239//171 101//171
f 290//172 105//172 104//172
f 289//173 238//173 105//173
f 101//174 102//174 100//174
f 106//175 296//175 102//175
f 239//176 106//176 101//176
f 240//177 295//177 106//177
f 102//178 103//178 100//178
f 107//179 278//179 103//179
f 296//180 107//180 102//180
f 297//181 279//181 107//181
f 103//182 104//182 100//182
f 104//183 291//183 290//183
f 278//184 108//184 103//184
f 277//185 291//185 108//185
f 113//186 110//186 109//186
f 114//187 272//187 110//187
f 296//188 114//188 113//188
f 295//189 273//189 114//189
f 109//190 115//190 111//190
f 111//191 298//191 299//191
f 110//192 271//192 115//192
f 271//123 298//123 115//123
f 111//193 112//193 109//193
f 116//194 284//194 112//194
f 299//195 116//195 111//195
f 300//196 283//196 116//196
f 112//197 113//197 109//197
f 117//198 296//198 113//198
f 284//199 117//199 112//199
f 285//200 297//200 117//200
f 118//201 123//201 119//201
f 123//107 260//107 119//107
f 122//202 298//202 123//202
f 298//108 261//108 123//108
f 118//203 124//203 120//203
f 120//204 294//204 293//204
f 119//102 259//102 124//102
f 124//104 370//104 294//104
f 120//205 121//205 118//205
f 125//206 281//206 121//206
f 293//207 125//207 120//207
f 292//208 280//208 125//208
f 121//209 122//209 118//209
f 126//210 299//210 122//210
f 281//211 126//211 121//211
f 282//212 300//212 126//212
f 131//213 128//213 127//213
f 132//214 302//214 128//214
f 311//215 132//215 131//215
f 312//216 301//216 132//216
f 128//217 129//217 127//217
f 133//218 308//218 129//218
f 302//219 133//219 128//219
f 303//220 309//220 133//220
f 129//221 130//221 127//221
f 134//222 305//222 130//222
f 308//223 134//223 129//223
f 307//224 306//224 134//224
f 130//225 131//225 127//225
f 135//226 311//226 131//226
f 305//227 135//227 130//227
f 304//228 310//228 135//228
f 136//229 141//229 137//229
f 137//230 319//230 320//230
f 341//231 141//231 140//231
f 342//232 319//232 141//232
f 137//233 138//233 136//233
f 142//234 338//234 138//234
f 320//235 142//235 137//235
f 321//236 337//236 142//236
f 136//237 143//237 139//237
f 139//238 336//238 335//238
f 138//239 339//239 143//239
f 143//240 382//240 336//240
f 136//241 144//241 140//241
f 140//242 340//242 341//242
f 139//243 334//243 144//243
f 144//244 384//244 340//244
f 145//245 150//245 146//245
f 146//246 277//246 278//246
f 149//247 324//247 150//247
f 150//248 373//248 277//248
f 145//249 151//249 147//249
f 147//250 321//250 320//250
f 146//251 279//251 151//251
f 151//252 374//252 321//252
f 147//253 148//253 145//253
f 148//254 303//254 302//254
f 147//255 319//255 152//255
f 152//256 378//256 303//256
f 145//257 153//257 149//257
f 153//258 323//258 149//258
f 148//259 301//259 153//259
f 153//260 377//260 322//260
f 154//261 159//261 155//261
f 155//262 307//262 308//262
f 158//263 345//263 159//263
f 159//264 380//264 307//264
f 154//265 160//265 156//265
f 156//266 342//266 341//266
f 155//267 309//267 160//267
f 160//268 378//268 342//268
f 156//269 157//269 154//269
f 161//270 329//270 157//270
f 341//271 161//271 156//271
f 340//272 330//272 161//272
f 157//273 158//273 154//273
f 162//274 344//274 158//274
f 329//275 162//275 157//275
f 328//276 343//276 162//276
f 163//277 168//277 164//277
f 164//278 285//278 284//278
f 167//279 337//279 168//279
f 168//280 374//280 285//280
f 163//281 169//281 165//281
f 165//282 346//282 347//282
f 164//283 283//283 169//283
f 169//284 376//284 346//284
f 165//285 166//285 163//285
f 170//286 326//286 166//286
f 347//287 170//287 165//287
f 348//288 325//288 170//288
f 166//289 167//289 163//289
f 171//290 338//290 167//290
f 326//291 171//291 166//291
f 327//292 339//292 171//292
f 176//293 173//293 172//293
f 177//294 317//294 173//294
f 347//295 177//295 176//295
f 346//296 318//296 177//296
f 172//297 178//297 174//297
f 178//298 344//298 174//298
f 173//299 316//299 178//299
f 316//300 345//300 178//300
f 172//301 179//301 175//301
f 175//302 331//302 332//302
f 174//303 343//303 179//303
f 179//304 383//304 331//304
f 172//305 180//305 176//305
f 176//306 348//306 347//306
f 175//307 333//307 180//307
f 180//308 381//308 348//308
f 185//309 182//309 181//309
f 186//310 323//310 182//310
f 353//311 186//311 185//311
f 352//312 324//312 186//312
f 181//313 187//313 183//313
f 187//314 350//314 183//314
f 182//315 322//315 187//315
f 322//316 349//316 187//316
f 181//317 188//317 184//317
f 184//318 334//318 335//318
f 183//319 351//319 188//319
f 188//320 384//320 334//320
f 181//321 189//321 185//321
f 185//322 354//322 353//322
f 184//323 336//323 189//323
f 189//324 382//324 354//324
f 190//325 195//325 191//325
f 191//326 312//326 311//326
f 194//327 349//327 195//327
f 195//328 377//328 312//328
f 190//329 196//329 192//329
f 192//330 355//330 356//330
f 191//331 310//331 196//331
f 196//332 379//332 355//332
f 192//333 193//333 190//333
f 197//334 329//334 193//334
f 356//335 197//335 192//335
f 357//336 328//336 197//336
f 193//337 194//337 190//337
f 198//338 350//338 194//338
f 329//339 198//339 193//339
f 330//340 351//340 198//340
f 203//341 200//341 199//341
f 204//342 359//342 200//342
f 314//343 204//343 203//343
f 313//344 358//344 204//344
f 199//345 205//345 201//345
f 201//346 333//346 332//346
f 200//347 360//347 205//347
f 205//348 381//348 333//348
f 199//349 206//349 202//349
f 202//350 357//350 356//350
f 201//351 331//351 206//351
f 206//352 383//352 357//352
f 199//353 207//353 203//353
f 203//354 315//354 314//354
f 356//355 207//355 202//355
f 355//356 315//356 207//356
f 208//357 213//357 209//357
f 209//358 352//358 353//358
f 212//359 288//359 213//359
f 213//360 373//360 352//360
f 209//361 210//361 208//361
f 214//362 326//362 210//362
f 353//363 214//363 209//363
f 354//364 327//364 214//364
f 210//365 211//365 208//365
f 215//366 359//366 211//366
f 326//367 215//367 210//367
f 325//368 360//368 215//368
f 208//369 216//369 212//369
f 212//370 286//370 287//370
f 211//371 358//371 216//371
f 216//372 375//372 286//372
f 1//373 5//373 6//373
f 6//374 217//374 218//374
f 5//375 221//375 220//375
f 220//4 361//4 217//4
f 1//376 2//376 7//376
f 3//377 7//377 226//377
f 2//378 218//378 219//378
f 7//379 219//379 362//379
f 1//380 3//380 8//380
f 4//381 8//381 232//381
f 3//382 227//382 228//382
f 8//383 228//383 363//383
f 4//384 9//384 5//384
f 9//385 222//385 221//385
f 233//386 234//386 9//386
f 234//387 364//387 222//387
f 10//388 14//388 15//388
f 11//389 15//389 244//389
f 242//390 241//390 15//390
f 15//20 241//20 365//20
f 11//391 16//391 12//391
f 16//392 252//392 251//392
f 245//393 246//393 16//393
f 246//394 368//394 252//394
f 10//395 12//395 17//395
f 13//396 17//396 249//396
f 12//397 251//397 250//397
f 17//398 250//398 367//398
f 10//399 13//399 18//399
f 14//400 18//400 243//400
f 13//401 248//401 247//401
f 18//402 247//402 366//402
f 23//403 24//403 20//403
f 20//34 24//34 223//34
f 218//404 217//404 24//404
f 24//36 217//36 361//36
f 20//405 25//405 21//405
f 25//406 241//406 242//406
f 224//39 225//39 25//39
f 225//40 365//40 241//40
f 19//407 21//407 26//407
f 22//408 26//408 231//408
f 21//409 242//409 243//409
f 26//410 243//410 366//410
f 19//411 22//411 27//411
f 23//412 27//412 219//412
f 22//413 230//413 229//413
f 27//414 229//414 362//414
f 28//415 32//415 33//415
f 29//416 33//416 229//416
f 32//417 227//417 226//417
f 33//418 226//418 362//418
f 28//419 29//419 34//419
f 30//420 34//420 247//420
f 29//421 230//421 231//421
f 34//422 231//422 366//422
f 28//423 30//423 35//423
f 31//424 35//424 237//424
f 30//425 248//425 249//425
f 35//426 249//426 367//426
f 28//427 31//427 36//427
f 32//428 36//428 228//428
f 31//429 236//429 235//429
f 36//430 235//430 363//430
f 37//431 41//431 42//431
f 38//432 42//432 235//432
f 233//433 232//433 42//433
f 42//434 232//434 363//434
f 37//435 38//435 43//435
f 43//436 250//436 251//436
f 38//437 236//437 237//437
f 43//438 237//438 367//438
f 37//439 39//439 44//439
f 40//440 44//440 240//440
f 39//441 251//441 252//441
f 44//442 252//442 368//442
f 37//443 40//443 45//443
f 41//444 45//444 234//444
f 40//445 239//445 238//445
f 45//446 238//446 364//446
f 50//447 51//447 47//447
f 47//39 51//39 225//39
f 269//448 270//448 51//448
f 51//40 270//40 365//40
f 47//449 52//449 48//449
f 52//450 265//450 266//450
f 224//34 223//34 52//34
f 223//36 361//36 265//36
f 46//451 48//451 53//451
f 53//452 256//452 257//452
f 48//453 266//453 267//453
f 53//454 267//454 369//454
f 46//455 49//455 54//455
f 50//456 54//456 268//456
f 257//457 258//457 54//457
f 54//458 258//458 371//458
f 55//459 59//459 60//459
f 56//460 60//460 258//460
f 59//461 263//461 262//461
f 60//462 262//462 371//462
f 55//463 56//463 61//463
f 57//464 61//464 253//464
f 56//465 257//465 256//465
f 61//466 256//466 369//466
f 57//467 62//467 58//467
f 62//102 259//102 260//102
f 254//468 255//468 62//468
f 255//104 370//104 259//104
f 58//469 63//469 59//469
f 63//470 264//470 263//470
f 58//107 260//107 261//107
f 63//108 261//108 372//108
f 64//471 68//471 69//471
f 65//472 69//472 246//472
f 68//473 272//473 273//473
f 69//474 273//474 368//474
f 65//475 70//475 66//475
f 70//476 270//476 269//476
f 245//477 244//477 70//477
f 244//20 365//20 270//20
f 64//478 66//478 71//478
f 71//479 262//479 263//479
f 66//480 269//480 268//480
f 71//481 268//481 371//481
f 67//482 72//482 68//482
f 72//483 271//483 272//483
f 67//484 263//484 264//484
f 264//123 372//123 271//123
f 73//485 77//485 78//485
f 74//486 78//486 274//486
f 77//487 293//487 294//487
f 294//127 370//127 274//127
f 74//488 79//488 75//488
f 79//489 289//489 290//489
f 275//490 276//490 79//490
f 276//491 364//491 289//491
f 75//492 80//492 76//492
f 80//493 288//493 287//493
f 290//494 291//494 80//494
f 291//495 373//495 288//495
f 76//496 81//496 77//496
f 81//497 292//497 293//497
f 287//498 286//498 81//498
f 286//499 375//499 292//499
f 86//500 87//500 83//500
f 87//501 220//501 221//501
f 266//502 265//502 87//502
f 87//4 265//4 361//4
f 82//503 83//503 88//503
f 84//504 88//504 276//504
f 83//505 221//505 222//505
f 88//506 222//506 364//506
f 84//507 89//507 85//507
f 85//508 89//508 255//508
f 275//509 274//509 89//509
f 89//127 274//127 370//127
f 82//510 85//510 90//510
f 86//511 90//511 267//511
f 254//512 253//512 90//512
f 90//513 253//513 369//513
f 91//514 95//514 96//514
f 92//515 96//515 282//515
f 95//516 317//516 318//516
f 96//517 318//517 376//517
f 91//518 92//518 97//518
f 93//519 97//519 313//519
f 92//520 281//520 280//520
f 97//521 280//521 375//521
f 91//522 93//522 98//522
f 94//163 98//163 304//163
f 314//523 315//523 98//523
f 98//165 315//165 379//165
f 94//524 99//524 95//524
f 95//525 99//525 316//525
f 94//168 305//168 306//168
f 99//169 306//169 380//169
f 104//526 105//526 101//526
f 105//527 238//527 239//527
f 290//528 289//528 105//528
f 289//529 364//529 238//529
f 101//530 106//530 102//530
f 106//531 295//531 296//531
f 239//532 240//532 106//532
f 240//533 368//533 295//533
f 102//534 107//534 103//534
f 107//535 279//535 278//535
f 296//536 297//536 107//536
f 297//537 374//537 279//537
f 103//538 108//538 104//538
f 104//539 108//539 291//539
f 278//540 277//540 108//540
f 277//541 373//541 291//541
f 113//542 114//542 110//542
f 114//543 273//543 272//543
f 296//544 295//544 114//544
f 295//545 368//545 273//545
f 109//546 110//546 115//546
f 111//547 115//547 298//547
f 110//548 272//548 271//548
f 271//123 372//123 298//123
f 111//549 116//549 112//549
f 116//550 283//550 284//550
f 299//551 300//551 116//551
f 300//552 376//552 283//552
f 112//553 117//553 113//553
f 117//554 297//554 296//554
f 284//555 285//555 117//555
f 285//556 374//556 297//556
f 118//557 122//557 123//557
f 123//107 261//107 260//107
f 122//558 299//558 298//558
f 298//108 372//108 261//108
f 118//559 119//559 124//559
f 120//560 124//560 294//560
f 119//102 260//102 259//102
f 124//104 259//104 370//104
f 120//206 125//206 121//206
f 125//561 280//561 281//561
f 293//562 292//562 125//562
f 292//563 375//563 280//563
f 121//564 126//564 122//564
f 126//565 300//565 299//565
f 281//566 282//566 126//566
f 282//567 376//567 300//567
f 131//213 132//213 128//213
f 132//214 301//214 302//214
f 311//215 312//215 132//215
f 312//216 377//216 301//216
f 128//217 133//217 129//217
f 133//218 309//218 308//218
f 302//219 303//219 133//219
f 303//220 378//220 309//220
f 129//221 134//221 130//221
f 134//222 306//222 305//222
f 308//223 307//223 134//223
f 307//568 380//568 306//568
f 130//225 135//225 131//225
f 135//226 310//226 311//226
f 305//227 304//227 135//227
f 304//228 379//228 310//228
f 136//569 140//569 141//569
f 137//570 141//570 319//570
f 341//231 342//231 141//231
f 342//232 378//232 319//232
f 137//571 142//571 138//571
f 142//572 337//572 338//572
f 320//573 321//573 142//573
f 321//574 374//574 337//574
f 136//575 138//575 143//575
f 139//238 143//238 336//238
f 138//576 338//576 339//576
f 143//577 339//577 382//577
f 136//578 139//578 144//578
f 140//242 144//242 340//242
f 139//243 335//243 334//243
f 144//244 334//244 384//244
f 145//579 149//579 150//579
f 146//580 150//580 277//580
f 149//581 323//581 324//581
f 150//582 324//582 373//582
f 145//583 146//583 151//583
f 147//584 151//584 321//584
f 146//585 278//585 279//585
f 151//586 279//586 374//586
f 147//587 152//587 148//587
f 148//254 152//254 303//254
f 147//588 320//588 319//588
f 152//256 319//256 378//256
f 145//589 148//589 153//589
f 153//590 322//590 323//590
f 148//259 302//259 301//259
f 153//260 301//260 377//260
f 154//591 158//591 159//591
f 155//262 159//262 307//262
f 158//263 344//263 345//263
f 159//264 345//264 380//264
f 154//265 155//265 160//265
f 156//266 160//266 342//266
f 155//267 308//267 309//267
f 160//268 309//268 378//268
f 156//269 161//269 157//269
f 161//270 330//270 329//270
f 341//271 340//271 161//271
f 340//592 384//592 330//592
f 157//273 162//273 158//273
f 162//274 343//274 344//274
f 329//275 328//275 162//275
f 328//276 383//276 343//276
f 163//593 167//593 168//593
f 164//594 168//594 285//594
f 167//595 338//595 337//595
f 168//596 337//596 374//596
f 163//597 164//597 169//597
f 165//598 169//598 346//598
f 164//599 284//599 283//599
f 169//600 283//600 376//600
f 165//601 170//601 166//601
f 170//286 325//286 326//286
f 347//602 348//602 170//602
f 348//288 381//288 325//288
f 166//603 171//603 167//603
f 171//604 339//604 338//604
f 326//291 327//291 171//291
f 327//605 382//605 339//605
f 176//606 177//606 173//606
f 177//607 318//607 317//607
f 347//608 346//608 177//608
f 346//609 376//609 318//609
f 172//610 173//610 178//610
f 178//298 345//298 344//298
f 173//611 317//611 316//611
f 316//300 380//300 345//300
f 172//612 174//612 179//612
f 175//302 179//302 331//302
f 174//303 344//303 343//303
f 179//304 343//304 383//304
f 172//613 175//613 180//613
f 176//614 180//614 348//614
f 175//307 332//307 333//307
f 180//308 333//308 381//308
f 185//615 186//615 182//615
f 186//616 324//616 323//616
f 353//617 352//617 186//617
f 352//618 373//618 324//618
f 181//619 182//619 187//619
f 187//314 349//314 350//314
f 182//620 323//620 322//620
f 322//316 377//316 349//316
f 181//621 183//621 188//621
f 184//318 188//318 334//318
f 183//319 350//319 351//319
f 188//320 351//320 384//320
f 181//622 184//622 189//622
f 185//623 189//623 354//623
f 184//323 335//323 336//323
f 189//324 336//324 382//324
f 190//325 194//325 195//325
f 191//326 195//326 312//326
f 194//327 350//327 349//327
f 195//328 349//328 377//328
f 190//329 191//329 196//329
f 192//330 196//330 355//330
f 191//331 311//331 310//331
f 196//332 310//332 379//332
f 192//333 197//333 193//333
f 197//334 328//334 329//334
f 356//335 357//335 197//335
f 357//336 383//336 328//336
f 193//337 198//337 194//337
f 198//338 351//338 350//338
f 329//339 330//339 198//339
f 330//340 384//340 351//340
f 203//624 204//624 200//624
f 204//625 358//625 359//625
f 314//626 313//626 204//626
f 313//627 375//627 358//627
f 199//628 200//628 205//628
f 201//346 205//346 333//346
f 200//629 359//629 360//629
f 205//348 360//348 381//348
f 199//630 201//630 206//630
f 202//350 206//350 357//350
f 201//351 332//351 331//351
f 206//352 331//352 383//352
f 199//631 202//631 207//631
f 203//632 207//632 315//632
f 356//355 355//355 207//355
f 355//356 379//356 315//356
f 208//633 212//633 213//633
f 209//634 213//634 352//634
f 212//635 287//635 288//635
f 213//636 288//636 373//636
f 209//637 214//637 210//637
f 214//362 327//362 326//362
f 353//638 354//638 214//638
f 354//364 382//364 327//364
f 210//639 215//639 211//639
f 215//640 360//640 359//640
f 326//367 325//367 215//367
f 325//368 381//368 360//368
f 208//641 211//641 216//641
f 212//642 216//642 286//642
f 211//643 359//643 358//643
f 216//644 358//644 375//644
