# Blender v2.79 (sub 0) OBJ File: 'building.blend'
# www.blender.org
mtllib building.mtl
o Cube
v -1.000000 -1.000000 0.000000
v -1.000000 1.000000 0.000000
v 1.000000 1.000000 0.000000
v 1.000000 -1.000000 0.000000
v -1.000000 -1.000000 0.100000
v -0.999999 1.000001 0.100000
v 1.000000 1.000000 0.100000
v 1.000000 -1.000000 0.100000
v -0.823009 -0.823008 0.100000
v -0.823008 0.823009 0.100000
v 0.823009 0.823008 0.100000
v 0.823008 -0.823009 0.100000
v -0.823009 -0.823008 1.259944
v -0.823008 0.823009 1.259944
v 0.823009 0.823008 1.259944
v 0.823008 -0.823009 1.259944
v -0.864159 -0.864159 1.259944
v -0.864158 0.864160 1.259944
v 0.864159 0.864159 1.259944
v 0.864159 -0.864159 1.259944
v -0.864159 -0.864159 1.404521
v -0.864158 0.864160 1.404521
v 0.864159 0.864159 1.404521
v 0.864159 -0.864159 1.404521
v -0.788552 -0.788551 1.404521
v -0.788551 0.788552 1.404521
v 0.788552 0.788551 1.404521
v 0.788552 -0.788552 1.404521
v -0.788552 -0.788551 2.246975
v -0.788551 0.788552 2.246975
v 0.788552 0.788551 2.246975
v 0.788552 -0.788552 2.246975
v -0.824548 -0.824547 2.246975
v -0.824547 0.824548 2.246975
v 0.824548 0.824548 2.246975
v 0.824548 -0.824548 2.246975
v -0.824548 -0.824547 2.311735
v -0.824547 0.824548 2.311735
v 0.824548 0.824548 2.311735
v 0.824548 -0.824548 2.311735
v -0.142745 -0.142745 2.877398
v -0.142745 0.142746 2.877398
v 0.142746 0.142746 2.877398
v 0.142746 -0.142745 2.877398
v -0.788552 -0.028002 1.670614
v -0.788551 0.644050 1.670614
v -0.788552 -0.028002 2.029609
v -0.788551 0.644050 2.029609
v -0.808552 -0.028002 1.670614
v -0.808551 0.644050 1.670614
v -0.808552 -0.028002 2.029609
v -0.808551 0.644050 2.029609
v -0.808552 -0.002504 1.684235
v -0.808551 0.618551 1.684235
v -0.808552 -0.002504 2.015989
v -0.808551 0.618551 2.015989
v -0.796190 -0.002504 1.684235
v -0.796189 0.618551 1.684235
v -0.796190 -0.002504 2.015989
v -0.796189 0.618551 2.015989
vt 0.699686 0.854180
vt 0.657571 0.773180
vt 0.699686 0.773180
vt 0.657571 0.854180
vt 0.542061 0.011738
vt 0.288168 0.272587
vt 0.288168 0.011738
vt 0.939435 0.510743
vt 0.952130 0.249895
vt 0.952130 0.510743
vt 0.975880 0.795470
vt 0.988575 0.534621
vt 0.988575 0.795470
vt 0.974981 0.510743
vt 0.987675 0.249895
vt 0.987675 0.510743
vt 0.953030 0.534621
vt 0.940335 0.795470
vt 0.940335 0.534621
vt 0.011425 0.011738
vt 0.242850 0.034822
vt 0.033894 0.034822
vt 0.033894 0.249503
vt 0.011425 0.272587
vt 0.265318 0.272587
vt 0.265318 0.011738
vt 0.242850 0.249503
vt 0.712162 0.226419
vt 0.564911 0.011738
vt 0.712162 0.011738
vt 0.875381 0.510743
vt 0.728130 0.296063
vt 0.875381 0.296063
vt 0.158676 0.759634
vt 0.011425 0.544954
vt 0.158676 0.544954
vt 0.181526 0.544954
vt 0.328777 0.759634
vt 0.181526 0.759634
vt 0.225605 0.516110
vt 0.011425 0.521478
vt 0.016649 0.516111
vt 0.011425 0.296063
vt 0.016649 0.301430
vt 0.230829 0.296063
vt 0.230829 0.521477
vt 0.225605 0.301430
vt 0.917485 0.760036
vt 0.899131 0.534621
vt 0.917485 0.534621
vt 0.898232 0.285329
vt 0.916585 0.510743
vt 0.898232 0.510743
vt 0.883163 0.237153
vt 0.864809 0.011738
vt 0.883163 0.011738
vt 0.857927 0.534621
vt 0.876281 0.760036
vt 0.857927 0.760036
vt 0.253679 0.521478
vt 0.463485 0.511617
vt 0.473083 0.521478
vt 0.463485 0.305924
vt 0.473083 0.296063
vt 0.253679 0.296063
vt 0.263277 0.511617
vt 0.263277 0.305924
vt 0.351627 0.544954
vt 0.458574 0.750646
vt 0.351627 0.750646
vt 0.728130 0.763790
vt 0.835077 0.969483
vt 0.728131 0.969483
vt 0.728131 0.534621
vt 0.755724 0.641120
vt 0.728130 0.740314
vt 0.841959 0.217431
vt 0.735013 0.011738
vt 0.841959 0.011738
vt 0.700711 0.539316
vt 0.705280 0.749703
vt 0.700710 0.745009
vt 0.500503 0.539316
vt 0.705280 0.534621
vt 0.495933 0.749703
vt 0.500503 0.745009
vt 0.495933 0.534621
vt 0.603649 0.988262
vt 0.595428 0.773180
vt 0.603649 0.773180
vt 0.914234 0.226820
vt 0.906013 0.011738
vt 0.914234 0.011738
vt 0.634721 0.988262
vt 0.626500 0.773180
vt 0.634721 0.773180
vt 0.572578 0.988262
vt 0.564357 0.773180
vt 0.572578 0.773180
vt 0.705280 0.511145
vt 0.618728 0.384987
vt 0.705280 0.296063
vt 0.495933 0.296063
vt 0.582486 0.422222
vt 0.495933 0.511145
vt 0.582486 0.384987
vt 0.618728 0.422222
vt 0.801297 0.641120
vt 0.835077 0.740314
vt 0.835077 0.534621
vt 0.801297 0.553468
vt 0.755724 0.553468
vt 0.013964 0.829933
vt 0.011425 0.783111
vt 0.013964 0.783111
vt 0.351627 0.774123
vt 0.354166 0.861775
vt 0.351627 0.861775
vt 0.453784 0.820945
vt 0.451245 0.774123
vt 0.453784 0.774123
vt 0.377017 0.774123
vt 0.379556 0.861775
vt 0.377017 0.861775
vt 0.541507 0.773180
vt 0.497663 0.776505
vt 0.495933 0.773180
vt 0.497663 0.857506
vt 0.495933 0.860832
vt 0.539777 0.857506
vt 0.541507 0.860832
vt 0.539777 0.776505
vt 0.061234 0.783111
vt 0.062803 0.826380
vt 0.061234 0.826380
vt 0.426826 0.774123
vt 0.428395 0.855123
vt 0.426826 0.855123
vt 0.038384 0.826380
vt 0.036814 0.783111
vt 0.038384 0.783111
vt 0.403975 0.855123
vt 0.402406 0.774123
vt 0.403975 0.774123
vt 0.542061 0.272587
vt 0.939435 0.249895
vt 0.975880 0.534621
vt 0.974981 0.249895
vt 0.953030 0.795470
vt 0.564912 0.226419
vt 0.728131 0.510743
vt 0.011425 0.759635
vt 0.328777 0.544954
vt 0.899131 0.760036
vt 0.916585 0.285329
vt 0.864810 0.237153
vt 0.876281 0.534621
vt 0.458574 0.544954
vt 0.835077 0.763790
vt 0.735013 0.217431
vt 0.595428 0.988262
vt 0.906013 0.226820
vt 0.626500 0.988262
vt 0.564357 0.988262
vt 0.011425 0.829933
vt 0.354166 0.774123
vt 0.451245 0.820945
vt 0.379556 0.774123
vt 0.062803 0.783111
vt 0.428395 0.774123
vt 0.036814 0.826380
vt 0.402406 0.855123
vn -1.0000 0.0000 0.0000
vn 0.0000 0.0000 -1.0000
vn 0.0000 1.0000 -0.0000
vn 1.0000 -0.0000 -0.0000
vn -0.0000 -1.0000 0.0000
vn -0.0000 0.0000 1.0000
vn -0.0000 -0.6385 0.7696
vn 0.0000 0.6385 0.7696
vn -0.6385 0.0000 0.7696
vn 0.6385 -0.0000 0.7696
usemtl Material
s off
f 57/1/1 60/2/1 58/3/1
f 57/1/1 59/4/1 60/2/1
usemtl Material_NONE
f 2/5/2 4/6/2 1/7/2
f 5/8/1 2/9/1 1/10/1
f 6/11/3 3/12/3 2/13/3
f 7/14/4 4/15/4 3/16/4
f 1/17/5 8/18/5 5/19/5
f 8/20/6 11/21/6 12/22/6
f 8/20/6 9/23/6 5/24/6
f 6/25/6 11/21/6 7/26/6
f 6/25/6 9/23/6 10/27/6
f 9/28/1 14/29/1 10/30/1
f 11/31/4 16/32/4 12/33/4
f 12/34/5 13/35/5 9/36/5
f 10/37/3 15/38/3 11/39/3
f 15/40/2 20/41/2 16/42/2
f 16/42/2 17/43/2 13/44/2
f 15/40/2 18/45/2 19/46/2
f 13/44/2 18/45/2 14/47/2
f 18/48/3 23/49/3 19/50/3
f 17/51/1 22/52/1 18/53/1
f 19/54/4 24/55/4 20/56/4
f 20/57/5 21/58/5 17/59/5
f 23/60/6 28/61/6 24/62/6
f 24/62/6 25/63/6 21/64/6
f 22/65/6 27/66/6 23/60/6
f 21/64/6 26/67/6 22/65/6
f 28/68/5 29/69/5 25/70/5
f 26/71/3 31/72/3 27/73/3
f 30/74/1 47/75/1 29/76/1
f 27/77/4 32/78/4 28/79/4
f 30/80/2 35/81/2 31/82/2
f 29/83/2 34/84/2 30/80/2
f 31/82/2 36/85/2 32/86/2
f 29/83/2 36/85/2 33/87/2
f 35/88/4 40/89/4 36/90/4
f 36/91/5 37/92/5 33/93/5
f 34/94/3 39/95/3 35/96/3
f 33/97/1 38/98/1 34/99/1
f 40/100/7 41/101/7 37/102/7
f 38/103/8 43/104/8 39/105/8
f 38/103/9 41/101/9 42/106/9
f 39/105/10 44/107/10 40/100/10
f 41/101/6 43/104/6 42/106/6
f 29/76/1 45/108/1 25/109/1
f 26/110/1 45/108/1 46/111/1
f 30/74/1 46/111/1 48/112/1
f 47/113/5 49/114/5 45/115/5
f 45/116/2 50/117/2 46/118/2
f 46/119/3 52/120/3 48/121/3
f 48/122/6 51/123/6 47/124/6
f 50/125/1 56/126/1 52/127/1
f 52/127/1 55/128/1 51/129/1
f 51/129/1 53/130/1 49/131/1
f 49/131/1 54/132/1 50/125/1
f 55/133/3 57/134/3 53/135/3
f 53/136/6 58/137/6 54/138/6
f 54/139/5 60/140/5 56/141/5
f 56/142/2 59/143/2 55/144/2
f 2/5/2 3/145/2 4/6/2
f 5/8/1 6/146/1 2/9/1
f 6/11/3 7/147/3 3/12/3
f 7/14/4 8/148/4 4/15/4
f 1/17/5 4/149/5 8/18/5
f 8/20/6 7/26/6 11/21/6
f 8/20/6 12/22/6 9/23/6
f 6/25/6 10/27/6 11/21/6
f 6/25/6 5/24/6 9/23/6
f 9/28/1 13/150/1 14/29/1
f 11/31/4 15/151/4 16/32/4
f 12/34/5 16/152/5 13/35/5
f 10/37/3 14/153/3 15/38/3
f 15/40/2 19/46/2 20/41/2
f 16/42/2 20/41/2 17/43/2
f 15/40/2 14/47/2 18/45/2
f 13/44/2 17/43/2 18/45/2
f 18/48/3 22/154/3 23/49/3
f 17/51/1 21/155/1 22/52/1
f 19/54/4 23/156/4 24/55/4
f 20/57/5 24/157/5 21/58/5
f 23/60/6 27/66/6 28/61/6
f 24/62/6 28/61/6 25/63/6
f 22/65/6 26/67/6 27/66/6
f 21/64/6 25/63/6 26/67/6
f 28/68/5 32/158/5 29/69/5
f 26/71/3 30/159/3 31/72/3
f 30/74/1 48/112/1 47/75/1
f 27/77/4 31/160/4 32/78/4
f 30/80/2 34/84/2 35/81/2
f 29/83/2 33/87/2 34/84/2
f 31/82/2 35/81/2 36/85/2
f 29/83/2 32/86/2 36/85/2
f 35/88/4 39/161/4 40/89/4
f 36/91/5 40/162/5 37/92/5
f 34/94/3 38/163/3 39/95/3
f 33/97/1 37/164/1 38/98/1
f 40/100/7 44/107/7 41/101/7
f 38/103/8 42/106/8 43/104/8
f 38/103/9 37/102/9 41/101/9
f 39/105/10 43/104/10 44/107/10
f 41/101/6 44/107/6 43/104/6
f 29/76/1 47/75/1 45/108/1
f 26/110/1 25/109/1 45/108/1
f 30/74/1 26/110/1 46/111/1
f 47/113/5 51/165/5 49/114/5
f 45/116/2 49/166/2 50/117/2
f 46/119/3 50/167/3 52/120/3
f 48/122/6 52/168/6 51/123/6
f 50/125/1 54/132/1 56/126/1
f 52/127/1 56/126/1 55/128/1
f 51/129/1 55/128/1 53/130/1
f 49/131/1 53/130/1 54/132/1
f 55/133/3 59/169/3 57/134/3
f 53/136/6 57/170/6 58/137/6
f 54/139/5 58/171/5 60/140/5
f 56/142/2 60/172/2 59/143/2
