# Blender v2.79 (sub 0) OBJ File: ''
# www.blender.org
mtllib sphere.mtl
o Sphere
v 0.000000 -0.195090 0.980785
v 0.000000 -0.382683 0.923880
v 0.000000 -0.555570 0.831470
v 0.000000 -0.707107 0.707107
v 0.000000 -0.831470 0.555570
v 0.000000 -0.923880 0.382683
v 0.000000 -0.980785 0.195090
v 0.000000 -1.000000 0.000000
v 0.000000 -0.980785 -0.195090
v 0.000000 -0.555570 -0.831470
v -0.038060 -0.191342 0.980785
v -0.074658 -0.375330 0.923880
v -0.108386 -0.544895 0.831470
v -0.137950 -0.693520 0.707107
v -0.162212 -0.815493 0.555570
v -0.180240 -0.906127 0.382683
v -0.191342 -0.961940 0.195090
v -0.195090 -0.980785 0.000000
v -0.191342 -0.961940 -0.195090
v -0.180240 -0.906127 -0.382683
v -0.162212 -0.815493 -0.555570
v -0.137950 -0.693520 -0.707107
v -0.108386 -0.544895 -0.831470
v -0.074658 -0.375330 -0.923880
v -0.038060 -0.191341 -0.980785
v -0.074658 -0.180240 0.980785
v -0.146447 -0.353553 0.923880
v -0.212608 -0.513280 0.831470
v -0.270598 -0.653281 0.707107
v -0.318190 -0.768178 0.555570
v -0.353553 -0.853553 0.382683
v -0.375330 -0.906127 0.195090
v -0.382684 -0.923879 0.000000
v -0.375330 -0.906127 -0.195090
v -0.353554 -0.853553 -0.382683
v -0.318190 -0.768178 -0.555570
v -0.270598 -0.653281 -0.707107
v -0.212608 -0.513280 -0.831470
v -0.146447 -0.353553 -0.923880
v -0.074658 -0.180240 -0.980785
v -0.108387 -0.162212 0.980785
v -0.212608 -0.318190 0.923880
v -0.308658 -0.461940 0.831470
v -0.392848 -0.587938 0.707107
v -0.461940 -0.691342 0.555570
v -0.513280 -0.768178 0.382683
v -0.544895 -0.815493 0.195090
v -0.555570 -0.831469 0.000000
v -0.544895 -0.815493 -0.195090
v -0.513280 -0.768178 -0.382683
v -0.461940 -0.691342 -0.555570
v -0.392848 -0.587938 -0.707107
v -0.308658 -0.461940 -0.831470
v -0.212608 -0.318189 -0.923880
v -0.108386 -0.162211 -0.980785
v -0.137950 -0.137950 0.980785
v -0.270598 -0.270598 0.923880
v -0.392848 -0.392847 0.831470
v -0.500000 -0.500000 0.707107
v -0.587938 -0.587938 0.555570
v -0.653282 -0.653281 0.382683
v -0.693520 -0.693520 0.195090
v -0.707107 -0.707107 0.000000
v -0.693520 -0.693520 -0.195090
v -0.653282 -0.653281 -0.382683
v -0.587938 -0.587938 -0.555570
v -0.500000 -0.500000 -0.707107
v -0.392848 -0.392847 -0.831470
v -0.270598 -0.270598 -0.923880
v -0.137950 -0.137949 -0.980785
v -0.162212 -0.108386 0.980785
v -0.318190 -0.212607 0.923880
v -0.461940 -0.308658 0.831470
v -0.587938 -0.392847 0.707107
v -0.691342 -0.461940 0.555570
v -0.768178 -0.513280 0.382683
v -0.815493 -0.544895 0.195090
v -0.831470 -0.555570 0.000000
v -0.815493 -0.544895 -0.195090
v -0.768178 -0.513280 -0.382683
v -0.691342 -0.461940 -0.555570
v -0.587938 -0.392847 -0.707107
v -0.461940 -0.308658 -0.831470
v -0.318190 -0.212607 -0.923880
v -0.162212 -0.108386 -0.980785
v -0.180240 -0.074658 0.980785
v -0.353554 -0.146446 0.923880
v -0.513280 -0.212607 0.831470
v -0.653282 -0.270598 0.707107
v -0.768178 -0.318189 0.555570
v -0.853554 -0.353553 0.382683
v -0.906128 -0.375330 0.195090
v -0.923880 -0.382683 0.000000
v -0.906128 -0.375330 -0.195090
v -0.853554 -0.353553 -0.382683
v -0.768178 -0.318189 -0.555570
v -0.653282 -0.270598 -0.707107
v -0.513280 -0.212607 -0.831470
v -0.353554 -0.146446 -0.923880
v -0.180240 -0.074658 -0.980785
v -0.191342 -0.038060 0.980785
v -0.375331 -0.074658 0.923880
v -0.544895 -0.108386 0.831470
v -0.693520 -0.137949 0.707107
v -0.815493 -0.162211 0.555570
v -0.906128 -0.180240 0.382683
v -0.961940 -0.191341 0.195090
v -0.980785 -0.195090 0.000000
v -0.961940 -0.191341 -0.195090
v -0.906128 -0.180240 -0.382683
v -0.815493 -0.162211 -0.555570
v -0.693520 -0.137949 -0.707107
v -0.544895 -0.108386 -0.831470
v -0.375330 -0.074658 -0.923880
v -0.191342 -0.038060 -0.980785
v -0.195091 0.000000 0.980785
v -0.382684 0.000000 0.923880
v -0.555570 0.000000 0.831470
v -0.707107 0.000000 0.707107
v -0.831470 0.000000 0.555570
v -0.923880 0.000000 0.382683
v -0.980785 0.000000 0.195090
v -1.000000 0.000000 0.000000
v -0.980785 0.000000 -0.195090
v -0.923880 0.000000 -0.382683
v -0.831470 0.000000 -0.555570
v -0.707107 0.000000 -0.707107
v -0.555570 0.000000 -0.831470
v -0.382684 0.000000 -0.923880
v -0.195090 0.000000 -0.980785
v -0.191342 0.038061 0.980785
v -0.375331 0.074658 0.923880
v -0.544895 0.108387 0.831470
v -0.693520 0.137950 0.707107
v -0.815493 0.162212 0.555570
v -0.906128 0.180240 0.382683
v -0.961940 0.191342 0.195090
v -0.980785 0.195091 0.000000
v -0.961940 0.191342 -0.195090
v -0.906128 0.180240 -0.382683
v -0.815493 0.162212 -0.555570
v -0.693520 0.137950 -0.707107
v -0.544895 0.108387 -0.831470
v -0.375330 0.074658 -0.923880
v -0.191342 0.038061 -0.980785
v -0.180240 0.074658 0.980785
v -0.353554 0.146447 0.923880
v -0.513280 0.212608 0.831470
v -0.653282 0.270598 0.707107
v -0.768178 0.318190 0.555570
v -0.853554 0.353554 0.382683
v -0.906127 0.375331 0.195090
v -0.923880 0.382684 0.000000
v -0.906127 0.375331 -0.195090
v -0.853554 0.353554 -0.382683
v -0.768178 0.318190 -0.555570
v -0.653282 0.270598 -0.707107
v -0.513280 0.212608 -0.831470
v -0.353553 0.146447 -0.923880
v -0.180240 0.074658 -0.980785
v -0.162212 0.108387 0.980785
v -0.318190 0.212608 0.923880
v -0.461940 0.308659 0.831470
v -0.587938 0.392848 0.707107
v -0.691342 0.461940 0.555570
v -0.768178 0.513280 0.382683
v -0.815493 0.544895 0.195090
v -0.831470 0.555571 0.000000
v -0.815493 0.544895 -0.195090
v -0.768178 0.513280 -0.382683
v -0.691342 0.461940 -0.555570
v -0.587938 0.392848 -0.707107
v -0.461940 0.308659 -0.831470
v -0.318190 0.212608 -0.923880
v -0.162212 0.108387 -0.980785
v -0.137950 0.137950 0.980785
v -0.270598 0.270599 0.923880
v -0.392848 0.392848 0.831470
v -0.500000 0.500000 0.707107
v -0.587938 0.587938 0.555570
v -0.653282 0.653282 0.382683
v -0.693520 0.693520 0.195090
v -0.707107 0.707107 0.000000
v -0.693520 0.693520 -0.195090
v -0.653282 0.653282 -0.382683
v -0.587938 0.587938 -0.555570
v -0.500000 0.500000 -0.707107
v -0.392848 0.392848 -0.831470
v -0.270598 0.270598 -0.923880
v -0.137950 0.137950 -0.980785
v -0.108386 0.162212 0.980785
v -0.212608 0.318190 0.923880
v -0.308658 0.461940 0.831470
v -0.392848 0.587938 0.707107
v -0.461940 0.691342 0.555570
v -0.513280 0.768178 0.382683
v -0.544895 0.815493 0.195090
v -0.555570 0.831470 0.000000
v -0.544895 0.815493 -0.195090
v -0.513280 0.768178 -0.382683
v -0.461940 0.691342 -0.555570
v -0.392848 0.587938 -0.707107
v -0.308658 0.461940 -0.831470
v -0.212608 0.318190 -0.923880
v -0.108386 0.162212 -0.980785
v 0.000000 0.000000 -1.000000
v -0.074658 0.180240 0.980785
v -0.146447 0.353554 0.923880
v -0.212608 0.513280 0.831470
v -0.270598 0.653282 0.707107
v -0.318190 0.768178 0.555570
v -0.353553 0.853554 0.382683
v -0.375330 0.906128 0.195090
v -0.382683 0.923880 0.000000
v -0.375330 0.906128 -0.195090
v -0.353553 0.853554 -0.382683
v -0.318190 0.768178 -0.555570
v -0.270598 0.653282 -0.707107
v -0.212608 0.513280 -0.831470
v -0.146447 0.353554 -0.923880
v -0.074658 0.180240 -0.980785
v -0.038060 0.191342 0.980785
v -0.074658 0.375331 0.923880
v -0.108386 0.544896 0.831470
v -0.137950 0.693520 0.707107
v -0.162212 0.815493 0.555570
v -0.180240 0.906128 0.382683
v -0.191342 0.961940 0.195090
v -0.195090 0.980786 0.000000
v -0.191342 0.961940 -0.195090
v -0.180240 0.906128 -0.382683
v -0.162212 0.815493 -0.555570
v -0.137950 0.693520 -0.707107
v -0.108386 0.544895 -0.831470
v -0.074658 0.375331 -0.923880
v -0.038060 0.191342 -0.980785
v 0.000000 0.195091 0.980785
v -0.000000 0.382684 0.923880
v -0.000000 0.555571 0.831470
v 0.000000 0.707107 0.707107
v 0.000000 0.831470 0.555570
v -0.000000 0.923880 0.382683
v 0.000000 0.980785 0.195090
v 0.000000 1.000000 0.000000
v 0.000000 0.980785 -0.195090
v -0.000000 0.923880 -0.382683
v 0.000000 0.831470 -0.555570
v 0.000000 0.707107 -0.707107
v 0.000000 0.555570 -0.831470
v -0.000000 0.382684 -0.923880
v -0.000000 0.195091 -0.980785
v 0.038060 0.191342 0.980785
v 0.074658 0.375331 0.923880
v 0.108386 0.544896 0.831470
v 0.137950 0.693520 0.707107
v 0.162212 0.815493 0.555570
v 0.180240 0.906128 0.382683
v 0.191342 0.961940 0.195090
v 0.195090 0.980786 0.000000
v 0.191342 0.961940 -0.195090
v 0.180240 0.906128 -0.382683
v 0.162212 0.815493 -0.555570
v 0.137950 0.693520 -0.707107
v 0.108386 0.544895 -0.831470
v 0.074658 0.375331 -0.923880
v 0.038060 0.191342 -0.980785
v 0.074658 0.180240 0.980785
v 0.146447 0.353554 0.923880
v 0.212608 0.513280 0.831470
v 0.270598 0.653282 0.707107
v 0.318190 0.768178 0.555570
v 0.353553 0.853554 0.382683
v 0.375330 0.906127 0.195090
v 0.382684 0.923880 0.000000
v 0.375330 0.906127 -0.195090
v 0.353553 0.853554 -0.382683
v 0.318190 0.768178 -0.555570
v 0.270598 0.653282 -0.707107
v 0.212608 0.513280 -0.831470
v 0.146447 0.353554 -0.923880
v 0.074658 0.180240 -0.980785
v 0.108386 0.162212 0.980785
v 0.212608 0.318190 0.923880
v 0.308658 0.461940 0.831470
v 0.392847 0.587938 0.707107
v 0.461940 0.691342 0.555570
v 0.513280 0.768178 0.382683
v 0.544895 0.815493 0.195090
v 0.555570 0.831470 0.000000
v 0.544895 0.815493 -0.195090
v 0.513280 0.768178 -0.382683
v 0.461940 0.691342 -0.555570
v 0.392847 0.587938 -0.707107
v 0.308658 0.461940 -0.831470
v 0.212607 0.318190 -0.923880
v 0.108386 0.162212 -0.980785
v 0.000000 0.000001 1.000000
v 0.137950 0.137950 0.980785
v 0.270598 0.270598 0.923880
v 0.392848 0.392848 0.831470
v 0.500000 0.500000 0.707107
v 0.587938 0.587938 0.555570
v 0.653281 0.653282 0.382683
v 0.693520 0.693520 0.195090
v 0.707107 0.707107 0.000000
v 0.693520 0.693520 -0.195090
v 0.653281 0.653282 -0.382683
v 0.587938 0.587938 -0.555570
v 0.500000 0.500000 -0.707107
v 0.392847 0.392848 -0.831470
v 0.270598 0.270598 -0.923880
v 0.137950 0.137950 -0.980785
v 0.162212 0.108387 0.980785
v 0.318190 0.212608 0.923880
v 0.461940 0.308659 0.831470
v 0.587938 0.392848 0.707107
v 0.691342 0.461940 0.555570
v 0.768178 0.513280 0.382683
v 0.815493 0.544895 0.195090
v 0.831470 0.555570 0.000000
v 0.815493 0.544895 -0.195090
v 0.768178 0.513280 -0.382683
v 0.691342 0.461940 -0.555570
v 0.587938 0.392848 -0.707107
v 0.461940 0.308658 -0.831470
v 0.318190 0.212608 -0.923880
v 0.162212 0.108387 -0.980785
v 0.180240 0.074658 0.980785
v 0.353553 0.146447 0.923880
v 0.513280 0.212608 0.831470
v 0.653281 0.270598 0.707107
v 0.768177 0.318190 0.555570
v 0.853553 0.353554 0.382683
v 0.906127 0.375330 0.195090
v 0.923880 0.382684 0.000000
v 0.906127 0.375330 -0.195090
v 0.853553 0.353554 -0.382683
v 0.768177 0.318190 -0.555570
v 0.653281 0.270598 -0.707107
v 0.513280 0.212608 -0.831470
v 0.353553 0.146447 -0.923880
v 0.180240 0.074658 -0.980785
v 0.191342 0.038061 0.980785
v 0.375330 0.074658 0.923880
v 0.544895 0.108387 0.831470
v 0.693520 0.137950 0.707107
v 0.815493 0.162212 0.555570
v 0.906127 0.180240 0.382683
v 0.961939 0.191342 0.195090
v 0.980785 0.195090 0.000000
v 0.961939 0.191342 -0.195090
v 0.906127 0.180240 -0.382683
v 0.815493 0.162212 -0.555570
v 0.693520 0.137950 -0.707107
v 0.544895 0.108387 -0.831470
v 0.375330 0.074658 -0.923880
v 0.191342 0.038061 -0.980785
v 0.195090 0.000000 0.980785
v 0.382683 0.000000 0.923880
v 0.555570 0.000000 0.831470
v 0.707107 0.000000 0.707107
v 0.831469 0.000000 0.555570
v 0.923879 0.000000 0.382683
v 0.980785 0.000000 0.195090
v 1.000000 0.000000 0.000000
v 0.980785 0.000000 -0.195090
v 0.923879 0.000000 -0.382683
v 0.831469 0.000000 -0.555570
v 0.707107 0.000000 -0.707107
v 0.555570 0.000000 -0.831470
v 0.382683 0.000000 -0.923880
v 0.195090 0.000000 -0.980785
v 0.191342 -0.038060 0.980785
v 0.375330 -0.074658 0.923880
v 0.544895 -0.108386 0.831470
v 0.693520 -0.137949 0.707107
v 0.815493 -0.162211 0.555570
v 0.906127 -0.180240 0.382683
v 0.961939 -0.191342 0.195090
v 0.980785 -0.195090 0.000000
v 0.961939 -0.191342 -0.195090
v 0.906127 -0.180240 -0.382683
v 0.815493 -0.162211 -0.555570
v 0.693520 -0.137949 -0.707107
v 0.544895 -0.108386 -0.831470
v 0.375330 -0.074658 -0.923880
v 0.191342 -0.038060 -0.980785
v 0.180240 -0.074658 0.980785
v 0.353553 -0.146446 0.923880
v 0.513280 -0.212607 0.831470
v 0.653281 -0.270598 0.707107
v 0.768177 -0.318189 0.555570
v 0.853553 -0.353553 0.382683
v 0.906127 -0.375330 0.195090
v 0.923879 -0.382683 0.000000
v 0.906127 -0.375330 -0.195090
v 0.853553 -0.353553 -0.382683
v 0.768177 -0.318189 -0.555570
v 0.653281 -0.270598 -0.707107
v 0.513280 -0.212607 -0.831470
v 0.353553 -0.146446 -0.923880
v 0.180240 -0.074657 -0.980785
v 0.162212 -0.108386 0.980785
v 0.318190 -0.212607 0.923880
v 0.461940 -0.308658 0.831470
v 0.587938 -0.392847 0.707107
v 0.691341 -0.461939 0.555570
v 0.768178 -0.513280 0.382683
v 0.815493 -0.544895 0.195090
v 0.831469 -0.555570 0.000000
v 0.815493 -0.544895 -0.195090
v 0.768178 -0.513280 -0.382683
v 0.691341 -0.461939 -0.555570
v 0.587938 -0.392847 -0.707107
v 0.461940 -0.308658 -0.831470
v 0.318189 -0.212607 -0.923880
v 0.162212 -0.108386 -0.980785
v 0.137950 -0.137949 0.980785
v 0.270598 -0.270598 0.923880
v 0.392847 -0.392847 0.831470
v 0.500000 -0.500000 0.707107
v 0.587937 -0.587937 0.555570
v 0.653281 -0.653281 0.382683
v 0.693519 -0.693519 0.195090
v 0.707106 -0.707106 0.000000
v 0.693519 -0.693519 -0.195090
v 0.653281 -0.653281 -0.382683
v 0.587937 -0.587937 -0.555570
v 0.500000 -0.500000 -0.707107
v 0.392847 -0.392847 -0.831470
v 0.270598 -0.270598 -0.923880
v 0.137950 -0.137949 -0.980785
v 0.108386 -0.162211 0.980785
v 0.212607 -0.318189 0.923880
v 0.308658 -0.461939 0.831470
v 0.392847 -0.587937 0.707107
v 0.461939 -0.691341 0.555570
v 0.513280 -0.768177 0.382683
v 0.544895 -0.815492 0.195090
v 0.555570 -0.831469 0.000000
v 0.544895 -0.815492 -0.195090
v 0.513280 -0.768177 -0.382683
v 0.461939 -0.691341 -0.555570
v 0.392847 -0.587937 -0.707107
v 0.308658 -0.461939 -0.831470
v 0.212607 -0.318189 -0.923880
v 0.108386 -0.162211 -0.980785
v 0.074658 -0.180240 0.980785
v 0.146447 -0.353553 0.923880
v 0.212607 -0.513280 0.831470
v 0.270598 -0.653281 0.707107
v 0.318189 -0.768177 0.555570
v 0.353553 -0.853553 0.382683
v 0.375330 -0.906127 0.195090
v 0.382683 -0.923879 0.000000
v 0.375330 -0.906127 -0.195090
v 0.353553 -0.853553 -0.382683
v 0.318189 -0.768177 -0.555570
v 0.270598 -0.653281 -0.707107
v 0.212607 -0.513279 -0.831470
v 0.146446 -0.353553 -0.923880
v 0.074658 -0.180240 -0.980785
v 0.038060 -0.191342 0.980785
v 0.074658 -0.375330 0.923880
v 0.108386 -0.544895 0.831470
v 0.137950 -0.693520 0.707107
v 0.162211 -0.815492 0.555570
v 0.180240 -0.906127 0.382683
v 0.191341 -0.961939 0.195090
v 0.195090 -0.980785 0.000000
v 0.191341 -0.961939 -0.195090
v 0.180240 -0.906127 -0.382683
v 0.162211 -0.815492 -0.555570
v 0.137950 -0.693520 -0.707107
v 0.108386 -0.544895 -0.831470
v 0.074658 -0.375330 -0.923880
v 0.038060 -0.191341 -0.980785
v -0.000000 -0.923879 -0.382683
v -0.000000 -0.831469 -0.555570
v -0.000000 -0.707106 -0.707107
v -0.000000 -0.382683 -0.923880
v -0.000000 -0.195090 -0.980785
vt 0.500000 0.386950
vt 0.604445 0.278245
vt 0.500000 0.278245
vt 0.500000 0.821939
vt 0.543262 0.717494
vt 0.562807 0.815753
vt 0.593998 0.178061
vt 0.500000 0.178061
vt 0.579938 0.901877
vt 0.500000 0.909751
vt 0.579938 0.090249
vt 0.500000 0.090249
vt 0.593998 0.821939
vt 0.500000 0.821939
vt 0.500000 0.909750
vt 0.562807 0.815753
vt 0.500000 0.821939
vt 0.604445 0.721755
vt 0.500000 0.721755
vt 0.543262 0.717494
vt 0.500000 0.721755
vt 0.610878 0.613050
vt 0.500000 0.613050
vt 0.522055 0.610878
vt 0.500000 0.613050
vt 0.613050 0.500000
vt 0.500000 0.500000
vt 0.500000 0.613050
vt 0.500000 0.500000
vt 0.522055 0.610878
vt 0.500000 0.500000
vt 0.610878 0.386950
vt 0.500000 0.721756
vt 0.721756 0.500000
vt 0.717495 0.386950
vt 0.584862 0.704875
vt 0.704875 0.278245
vt 0.623201 0.797433
vt 0.684383 0.178061
vt 0.656805 0.878560
vt 0.656805 0.090249
vt 0.579938 0.909751
vt 0.684383 0.821939
vt 0.579938 0.901877
vt 0.623201 0.797433
vt 0.704875 0.721755
vt 0.584862 0.704875
vt 0.717495 0.613050
vt 0.543262 0.604444
vt 0.543262 0.604445
vt 0.656805 0.878560
vt 0.678860 0.767682
vt 0.797433 0.721755
vt 0.623201 0.684383
vt 0.815753 0.613050
vt 0.562807 0.593997
vt 0.821939 0.500000
vt 0.562807 0.593998
vt 0.815753 0.386950
vt 0.623201 0.684383
vt 0.797433 0.278245
vt 0.678860 0.767682
vt 0.767683 0.178061
vt 0.727645 0.840695
vt 0.727645 0.090249
vt 0.656805 0.909751
vt 0.767683 0.821939
vt 0.656805 0.656805
vt 0.878560 0.278245
vt 0.727645 0.727645
vt 0.840695 0.178061
vt 0.789738 0.789737
vt 0.767683 0.900615
vt 0.789738 0.789737
vt 0.727645 0.840695
vt 0.840695 0.840695
vt 0.767683 0.900615
vt 0.727645 0.727645
vt 0.878560 0.721755
vt 0.656805 0.656805
vt 0.901878 0.613050
vt 0.579938 0.579938
vt 0.909751 0.500000
vt 0.579939 0.579938
vt 0.901878 0.386950
vt 0.840695 0.821939
vt 0.797433 0.721755
vt 0.767683 0.678860
vt 0.684383 0.623201
vt 0.815753 0.613050
vt 0.593998 0.562807
vt 0.821939 0.500000
vt 0.593998 0.562807
vt 0.815753 0.386950
vt 0.684383 0.623201
vt 0.797433 0.278245
vt 0.767683 0.678860
vt 0.767682 0.178061
vt 0.840695 0.727645
vt 0.840695 0.840695
vt 0.840695 0.727645
vt 0.900615 0.767682
vt 0.704875 0.278245
vt 0.797433 0.623201
vt 0.684383 0.178061
vt 0.878560 0.656805
vt 0.727645 0.090249
vt 0.656805 0.090249
vt 0.767682 0.821939
vt 0.656805 0.909751
vt 0.684383 0.821939
vt 0.797433 0.623201
vt 0.704875 0.721755
vt 0.704875 0.584862
vt 0.717494 0.613050
vt 0.604445 0.543262
vt 0.721755 0.500000
vt 0.604445 0.543262
vt 0.717494 0.386950
vt 0.704875 0.584862
vt 0.717495 0.543262
vt 0.604444 0.721755
vt 0.610878 0.613050
vt 0.610878 0.522055
vt 0.613050 0.500000
vt 0.610878 0.522055
vt 0.610878 0.386950
vt 0.717495 0.543262
vt 0.604444 0.278245
vt 0.815753 0.562807
vt 0.593997 0.178061
vt 0.901878 0.579938
vt 0.579938 0.090249
vt 0.593997 0.821939
vt 0.878560 0.656805
vt 0.815753 0.562807
vt 0.500000 0.278245
vt 0.500000 0.178061
vt 0.909751 0.500000
vt 0.500000 0.090249
vt 0.579938 0.909751
vt 0.500000 0.821939
vt 0.909751 0.500000
vt 0.821939 0.500000
vt 0.500000 0.721755
vt 0.721756 0.500000
vt 0.500000 0.613050
vt 0.613050 0.500000
vt 0.500000 0.500000
vt 0.613050 0.500000
vt 0.500000 0.386950
vt 0.721756 0.500000
vt 0.821939 0.500000
vt 0.717495 0.456737
vt 0.610878 0.477945
vt 0.386950 0.500000
vt 0.610878 0.477945
vt 0.389122 0.386950
vt 0.717495 0.456737
vt 0.395555 0.278245
vt 0.815753 0.437193
vt 0.406002 0.178061
vt 0.901878 0.420061
vt 0.420061 0.090249
vt 0.420061 0.909751
vt 0.406002 0.821939
vt 0.901878 0.420061
vt 0.815753 0.437193
vt 0.395555 0.721755
vt 0.389122 0.613050
vt 0.878560 0.343195
vt 0.343195 0.090249
vt 0.315617 0.821939
vt 0.797433 0.376799
vt 0.295125 0.721755
vt 0.704875 0.415138
vt 0.282505 0.613050
vt 0.604445 0.456737
vt 0.278244 0.500000
vt 0.604445 0.456737
vt 0.282505 0.386950
vt 0.704875 0.415138
vt 0.295125 0.278245
vt 0.797433 0.376799
vt 0.315617 0.178061
vt 0.178061 0.500000
vt 0.593998 0.437193
vt 0.593998 0.437193
vt 0.184247 0.386950
vt 0.684383 0.376799
vt 0.202567 0.278245
vt 0.767683 0.321140
vt 0.232317 0.178061
vt 0.840695 0.272355
vt 0.272355 0.090249
vt 0.272355 0.909751
vt 0.232317 0.821939
vt 0.840695 0.272355
vt 0.767683 0.321140
vt 0.202567 0.721755
vt 0.684383 0.376799
vt 0.184247 0.613050
vt 0.900615 0.232317
vt 0.789737 0.210262
vt 0.840695 0.159305
vt 0.900615 0.232317
vt 0.727645 0.272355
vt 0.121440 0.721755
vt 0.656805 0.343195
vt 0.098122 0.613050
vt 0.579938 0.420061
vt 0.090249 0.500000
vt 0.579938 0.420061
vt 0.098122 0.386950
vt 0.656805 0.343195
vt 0.121440 0.278245
vt 0.727645 0.272354
vt 0.159305 0.178061
vt 0.789737 0.210262
vt 0.562807 0.406002
vt 0.562807 0.406002
vt 0.901877 0.386950
vt 0.821939 0.500000
vt 0.815753 0.386950
vt 0.623201 0.315617
vt 0.797433 0.278245
vt 0.878560 0.278245
vt 0.678860 0.232317
vt 0.840695 0.178061
vt 0.767682 0.178061
vt 0.727645 0.159305
vt 0.840695 0.159305
vt 0.727645 0.159305
vt 0.767682 0.099385
vt 0.678860 0.232317
vt 0.840695 0.821939
vt 0.797433 0.721755
vt 0.878560 0.721755
vt 0.623201 0.315617
vt 0.901877 0.613050
vt 0.815753 0.613050
vt 0.909751 0.500000
vt 0.727645 0.909751
vt 0.684383 0.821939
vt 0.767682 0.821939
vt 0.656805 0.121440
vt 0.623201 0.202567
vt 0.704875 0.721755
vt 0.584862 0.295125
vt 0.717494 0.613050
vt 0.543262 0.395555
vt 0.721755 0.500000
vt 0.543262 0.395555
vt 0.717494 0.386950
vt 0.584862 0.295124
vt 0.704875 0.278245
vt 0.623201 0.202567
vt 0.684383 0.178061
vt 0.656805 0.121440
vt 0.656805 0.090249
vt 0.727645 0.090249
vt 0.610878 0.386950
vt 0.543262 0.282505
vt 0.604445 0.278245
vt 0.562807 0.184247
vt 0.593998 0.178061
vt 0.579938 0.098122
vt 0.579938 0.090249
vt 0.656805 0.909751
vt 0.593998 0.821939
vt 0.562807 0.184247
vt 0.604445 0.721755
vt 0.543262 0.282505
vt 0.610878 0.613050
vt 0.522055 0.389122
vt 0.613050 0.500000
vt 0.522055 0.389122
vt 0.500000 0.090249
vt 0.500000 0.178061
vt 0.500000 0.721755
vt 0.500000 0.278244
vt 0.500000 0.613050
vt 0.500000 0.386950
vt 0.500000 0.500000
vt 0.500000 0.386950
vt 0.500000 0.386950
vt 0.500000 0.278244
vt 0.500000 0.278245
vt 0.500000 0.178061
vt 0.500000 0.178061
vt 0.500000 0.090249
vt 0.579938 0.909751
vt 0.500000 0.821939
vt 0.395555 0.278245
vt 0.437193 0.184247
vt 0.406002 0.178061
vt 0.420062 0.098122
vt 0.420062 0.090249
vt 0.420062 0.909751
vt 0.406002 0.821939
vt 0.437193 0.184247
vt 0.395555 0.721755
vt 0.456738 0.282505
vt 0.389122 0.613050
vt 0.477945 0.389122
vt 0.386950 0.500000
vt 0.477945 0.389122
vt 0.389122 0.386950
vt 0.456738 0.282505
vt 0.376799 0.202567
vt 0.415138 0.295125
vt 0.295125 0.721755
vt 0.282506 0.613050
vt 0.456738 0.395555
vt 0.278244 0.500000
vt 0.456738 0.395555
vt 0.282506 0.386950
vt 0.415138 0.295124
vt 0.295125 0.278245
vt 0.376799 0.202567
vt 0.315617 0.178061
vt 0.343195 0.121440
vt 0.343195 0.090249
vt 0.343195 0.909751
vt 0.315617 0.821939
vt 0.420062 0.098122
vt 0.321140 0.232317
vt 0.202567 0.278245
vt 0.232318 0.178061
vt 0.272355 0.159305
vt 0.272355 0.090249
vt 0.272355 0.909751
vt 0.232318 0.821939
vt 0.272355 0.159305
vt 0.321140 0.232317
vt 0.202567 0.721755
vt 0.376799 0.315617
vt 0.184247 0.613050
vt 0.437193 0.406002
vt 0.178061 0.500000
vt 0.437193 0.406002
vt 0.184247 0.386950
vt 0.376799 0.315617
vt 0.121440 0.721755
vt 0.098123 0.613050
vt 0.420062 0.420061
vt 0.090249 0.500000
vt 0.420062 0.420061
vt 0.098123 0.386950
vt 0.343195 0.343195
vt 0.121440 0.278245
vt 0.272355 0.272354
vt 0.159305 0.178061
vt 0.210263 0.210262
vt 0.232318 0.099385
vt 0.210263 0.210262
vt 0.232318 0.099385
vt 0.159305 0.159305
vt 0.272355 0.272355
vt 0.343195 0.343195
vt 0.202567 0.278245
vt 0.232317 0.178061
vt 0.232317 0.321140
vt 0.159305 0.272355
vt 0.159305 0.159305
vt 0.159305 0.272355
vt 0.099385 0.232317
vt 0.232318 0.321140
vt 0.159305 0.821939
vt 0.202567 0.721755
vt 0.315617 0.376799
vt 0.184247 0.613050
vt 0.406002 0.437193
vt 0.178061 0.500000
vt 0.406002 0.437193
vt 0.184247 0.386950
vt 0.315617 0.376799
vt 0.295125 0.415138
vt 0.395555 0.456738
vt 0.278244 0.500000
vt 0.395555 0.456737
vt 0.282506 0.386950
vt 0.295125 0.415138
vt 0.295125 0.278245
vt 0.202567 0.376799
vt 0.315617 0.178061
vt 0.121440 0.343195
vt 0.272355 0.090249
vt 0.343195 0.090249
vt 0.232317 0.821939
vt 0.343195 0.909751
vt 0.315617 0.821939
vt 0.202567 0.376799
vt 0.295125 0.721755
vt 0.282506 0.613050
vt 0.184247 0.437193
vt 0.098123 0.420062
vt 0.420062 0.090249
vt 0.420062 0.909751
vt 0.406002 0.821939
vt 0.121440 0.343195
vt 0.184247 0.437193
vt 0.395555 0.721755
vt 0.282506 0.456738
vt 0.389122 0.613050
vt 0.389122 0.477945
vt 0.386950 0.500000
vt 0.389122 0.477945
vt 0.389122 0.386950
vt 0.282506 0.456738
vt 0.395555 0.278245
vt 0.406002 0.178061
vt 0.500000 0.500000
vt 0.386950 0.500000
vt 0.386950 0.500000
vt 0.500000 0.386950
vt 0.278245 0.500000
vt 0.500000 0.278245
vt 0.178061 0.500000
vt 0.500000 0.178061
vt 0.090249 0.500000
vt 0.500000 0.090249
vt 0.500000 0.821939
vt 0.090249 0.500000
vt 0.178061 0.500000
vt 0.500000 0.721755
vt 0.278245 0.500000
vt 0.500000 0.613050
vt 0.579938 0.090249
vt 0.579938 0.909751
vt 0.593997 0.821939
vt 0.184247 0.562807
vt 0.604444 0.721755
vt 0.282506 0.543262
vt 0.610878 0.613050
vt 0.389122 0.522055
vt 0.613050 0.500000
vt 0.389122 0.522055
vt 0.610878 0.386950
vt 0.282506 0.543262
vt 0.604444 0.278245
vt 0.184247 0.562807
vt 0.593997 0.178061
vt 0.098123 0.579938
vt 0.395555 0.543262
vt 0.717494 0.386950
vt 0.295125 0.584862
vt 0.704875 0.278245
vt 0.202567 0.623201
vt 0.684383 0.178061
vt 0.121440 0.656805
vt 0.656805 0.090249
vt 0.684383 0.821939
vt 0.098123 0.579938
vt 0.202567 0.623201
vt 0.704875 0.721755
vt 0.295125 0.584862
vt 0.717494 0.613050
vt 0.721755 0.500000
vt 0.395555 0.543262
vt 0.121440 0.656805
vt 0.232318 0.678860
vt 0.797433 0.721755
vt 0.315617 0.623201
vt 0.815753 0.613050
vt 0.406002 0.562807
vt 0.821939 0.500000
vt 0.406002 0.562807
vt 0.815753 0.386950
vt 0.315617 0.623201
vt 0.797433 0.278245
vt 0.232318 0.678860
vt 0.767682 0.178061
vt 0.159305 0.727645
vt 0.727645 0.090249
vt 0.727645 0.909751
vt 0.767682 0.821939
vt 0.343195 0.656805
vt 0.878560 0.278245
vt 0.272355 0.727645
vt 0.840695 0.178061
vt 0.210263 0.789737
vt 0.099385 0.767682
vt 0.210263 0.789737
vt 0.159305 0.727645
vt 0.099385 0.767682
vt 0.159305 0.840695
vt 0.272355 0.727645
vt 0.878560 0.721755
vt 0.343195 0.656805
vt 0.901877 0.613050
vt 0.420062 0.579938
vt 0.909750 0.500000
vt 0.420062 0.579938
vt 0.901877 0.386950
vt 0.159305 0.821939
vt 0.202567 0.721755
vt 0.121440 0.721755
vt 0.376799 0.684383
vt 0.098123 0.613050
vt 0.184247 0.613050
vt 0.437193 0.593997
vt 0.090250 0.500000
vt 0.178061 0.500000
vt 0.437193 0.593997
vt 0.184247 0.386950
vt 0.098123 0.386950
vt 0.376799 0.684383
vt 0.202567 0.278245
vt 0.121440 0.278245
vt 0.321140 0.767682
vt 0.159305 0.178061
vt 0.232318 0.178061
vt 0.272355 0.840695
vt 0.159305 0.840695
vt 0.272355 0.840695
vt 0.232318 0.900615
vt 0.321140 0.767682
vt 0.295125 0.278245
vt 0.415138 0.704875
vt 0.376799 0.797433
vt 0.315617 0.178061
vt 0.343195 0.878560
vt 0.343195 0.090249
vt 0.272355 0.090249
vt 0.232318 0.821939
vt 0.343195 0.909751
vt 0.315617 0.821939
vt 0.376799 0.797433
vt 0.295125 0.721755
vt 0.415138 0.704875
vt 0.282506 0.613050
vt 0.456738 0.604444
vt 0.278245 0.500000
vt 0.456738 0.604444
vt 0.282506 0.386950
vt 0.456738 0.717494
vt 0.395556 0.721755
vt 0.389122 0.613050
vt 0.477945 0.610878
vt 0.386950 0.500000
vt 0.477945 0.610878
vt 0.389122 0.386950
vt 0.456738 0.717494
vt 0.395556 0.278245
vt 0.437193 0.815753
vt 0.406003 0.178061
vt 0.420062 0.901877
vt 0.420062 0.090249
vt 0.420062 0.909751
vt 0.406003 0.821939
vt 0.343195 0.878560
vt 0.437193 0.815753
vt 0.420062 0.901877
vt 0.727645 0.909751
vt 0.900615 0.767682
vt 0.727645 0.909751
vt 0.901878 0.579938
vt 0.500000 0.909751
vt 0.343195 0.909751
vt 0.878560 0.343195
vt 0.159305 0.821939
vt 0.767682 0.099385
vt 0.579938 0.098122
vt 0.500000 0.909751
vt 0.343195 0.121440
vt 0.099385 0.232317
vt 0.272355 0.909751
vt 0.098123 0.420062
vt 0.500000 0.909751
vt 0.656805 0.909751
vt 0.840695 0.821939
vt 0.232318 0.900615
vt 0.272355 0.909751
vn -0.0938 -0.9527 -0.2890
vn -0.0464 -0.4709 0.8810
vn -0.0865 -0.8786 -0.4696
vn -0.0624 -0.6332 0.7715
vn -0.0759 -0.7708 -0.6326
vn -0.0759 -0.7708 0.6326
vn -0.0624 -0.6332 -0.7715
vn -0.0865 -0.8786 0.4696
vn -0.0464 -0.4709 -0.8810
vn -0.0938 -0.9527 0.2890
vn -0.0286 -0.2902 -0.9565
vn -0.0975 -0.9904 0.0975
vn -0.0097 -0.0980 0.9951
vn -0.0097 -0.0980 -0.9951
vn -0.0975 -0.9904 -0.0976
vn -0.0286 -0.2902 0.9565
vn -0.2889 -0.9524 -0.0976
vn -0.0846 -0.2790 0.9565
vn -0.2779 -0.9161 -0.2890
vn -0.1374 -0.4528 0.8810
vn -0.2563 -0.8448 -0.4696
vn -0.1847 -0.6088 0.7715
vn -0.2248 -0.7412 -0.6326
vn -0.2248 -0.7412 0.6326
vn -0.1847 -0.6088 -0.7715
vn -0.2563 -0.8448 0.4696
vn -0.1374 -0.4528 -0.8810
vn -0.2779 -0.9161 0.2890
vn -0.0846 -0.2790 -0.9565
vn -0.2889 -0.9524 0.0975
vn -0.0286 -0.0942 0.9951
vn -0.0286 -0.0942 -0.9951
vn -0.2999 -0.5611 -0.7715
vn -0.4162 -0.7786 0.4696
vn -0.2231 -0.4173 -0.8810
vn -0.4513 -0.8443 0.2890
vn -0.1374 -0.2571 -0.9565
vn -0.4691 -0.8777 0.0975
vn -0.0464 -0.0869 0.9951
vn -0.0464 -0.0869 -0.9951
vn -0.4691 -0.8777 -0.0975
vn -0.1374 -0.2571 0.9565
vn -0.4513 -0.8443 -0.2890
vn -0.2231 -0.4173 0.8810
vn -0.4162 -0.7786 -0.4696
vn -0.2999 -0.5611 0.7715
vn -0.3651 -0.6831 -0.6326
vn -0.3651 -0.6831 0.6326
vn -0.1850 -0.2254 0.9565
vn -0.6073 -0.7400 -0.2890
vn -0.3002 -0.3658 0.8810
vn -0.5601 -0.6825 -0.4696
vn -0.4036 -0.4918 0.7715
vn -0.4913 -0.5987 -0.6326
vn -0.4913 -0.5987 0.6326
vn -0.4036 -0.4918 -0.7715
vn -0.5601 -0.6825 0.4696
vn -0.3002 -0.3658 -0.8810
vn -0.6073 -0.7400 0.2890
vn -0.1850 -0.2254 -0.9565
vn -0.6314 -0.7693 0.0976
vn -0.0625 -0.0761 0.9951
vn -0.0625 -0.0761 -0.9951
vn -0.6314 -0.7693 -0.0975
vn -0.6825 -0.5601 0.4696
vn -0.3658 -0.3002 -0.8810
vn -0.7400 -0.6073 0.2890
vn -0.2254 -0.1850 -0.9566
vn -0.7693 -0.6314 0.0976
vn -0.0761 -0.0625 0.9951
vn -0.0761 -0.0625 -0.9951
vn -0.7693 -0.6314 -0.0976
vn -0.2254 -0.1850 0.9565
vn -0.7400 -0.6073 -0.2890
vn -0.3658 -0.3002 0.8810
vn -0.6825 -0.5601 -0.4696
vn -0.4918 -0.4036 0.7715
vn -0.5987 -0.4913 -0.6326
vn -0.5987 -0.4913 0.6326
vn -0.4918 -0.4036 -0.7715
vn -0.8443 -0.4513 -0.2890
vn -0.4173 -0.2230 0.8810
vn -0.7786 -0.4162 -0.4696
vn -0.5611 -0.2999 0.7715
vn -0.6831 -0.3651 -0.6326
vn -0.6831 -0.3651 0.6326
vn -0.5611 -0.2999 -0.7715
vn -0.7786 -0.4162 0.4696
vn -0.4173 -0.2231 -0.8810
vn -0.8443 -0.4513 0.2890
vn -0.2571 -0.1374 -0.9565
vn -0.8777 -0.4691 0.0976
vn -0.0869 -0.0464 0.9951
vn -0.0869 -0.0464 -0.9951
vn -0.8777 -0.4691 -0.0976
vn -0.2571 -0.1374 0.9565
vn -0.4528 -0.1374 -0.8810
vn -0.9161 -0.2779 0.2890
vn -0.2790 -0.0846 -0.9565
vn -0.9524 -0.2889 0.0976
vn -0.0942 -0.0286 0.9951
vn -0.0942 -0.0286 -0.9951
vn -0.9524 -0.2889 -0.0976
vn -0.2790 -0.0846 0.9565
vn -0.9161 -0.2779 -0.2890
vn -0.4528 -0.1374 0.8810
vn -0.8448 -0.2563 -0.4696
vn -0.6088 -0.1847 0.7715
vn -0.7412 -0.2248 -0.6326
vn -0.7412 -0.2248 0.6326
vn -0.6088 -0.1847 -0.7715
vn -0.8448 -0.2563 0.4696
vn -0.8786 -0.0865 -0.4696
vn -0.6332 -0.0624 0.7715
vn -0.7708 -0.0759 -0.6326
vn -0.7708 -0.0759 0.6326
vn -0.6332 -0.0624 -0.7715
vn -0.8786 -0.0865 0.4696
vn -0.4709 -0.0464 -0.8810
vn -0.9527 -0.0938 0.2890
vn -0.2902 -0.0286 -0.9565
vn -0.9904 -0.0975 0.0976
vn -0.0980 -0.0097 0.9951
vn -0.0980 -0.0097 -0.9951
vn -0.9904 -0.0975 -0.0976
vn -0.2902 -0.0286 0.9565
vn -0.9527 -0.0938 -0.2890
vn -0.4709 -0.0464 0.8810
vn -0.2902 0.0286 -0.9565
vn -0.9904 0.0975 0.0976
vn -0.0980 0.0097 0.9951
vn -0.0980 0.0097 -0.9951
vn -0.9904 0.0976 -0.0976
vn -0.2902 0.0286 0.9565
vn -0.9527 0.0938 -0.2890
vn -0.4709 0.0464 0.8810
vn -0.8786 0.0865 -0.4696
vn -0.6332 0.0624 0.7715
vn -0.7708 0.0759 -0.6326
vn -0.7708 0.0759 0.6326
vn -0.6332 0.0624 -0.7715
vn -0.8786 0.0865 0.4696
vn -0.4709 0.0464 -0.8810
vn -0.9527 0.0938 0.2890
vn -0.6088 0.1847 0.7715
vn -0.7412 0.2248 -0.6326
vn -0.7412 0.2248 0.6326
vn -0.6088 0.1847 -0.7715
vn -0.8448 0.2563 0.4696
vn -0.4528 0.1374 -0.8810
vn -0.9161 0.2779 0.2890
vn -0.2790 0.0846 -0.9565
vn -0.9524 0.2889 0.0976
vn -0.0942 0.0286 0.9951
vn -0.0942 0.0286 -0.9951
vn -0.9524 0.2889 -0.0976
vn -0.2790 0.0846 0.9565
vn -0.9161 0.2779 -0.2890
vn -0.4528 0.1374 0.8810
vn -0.8448 0.2563 -0.4696
vn -0.8777 0.4691 0.0976
vn -0.0869 0.0464 0.9951
vn -0.0869 0.0464 -0.9951
vn -0.8777 0.4691 -0.0976
vn -0.2571 0.1374 0.9565
vn -0.8443 0.4513 -0.2890
vn -0.4173 0.2230 0.8810
vn -0.7786 0.4162 -0.4696
vn -0.5611 0.2999 0.7715
vn -0.6831 0.3651 -0.6326
vn -0.6831 0.3651 0.6326
vn -0.5611 0.2999 -0.7715
vn -0.7786 0.4162 0.4696
vn -0.4173 0.2231 -0.8810
vn -0.8443 0.4513 0.2890
vn -0.2571 0.1374 -0.9565
vn -0.5987 0.4913 -0.6326
vn -0.5987 0.4913 0.6326
vn -0.4918 0.4036 -0.7715
vn -0.6825 0.5601 0.4696
vn -0.3658 0.3002 -0.8810
vn -0.7400 0.6073 0.2890
vn -0.2254 0.1850 -0.9565
vn -0.7693 0.6314 0.0976
vn -0.0761 0.0625 0.9951
vn -0.0761 0.0625 -0.9951
vn -0.7693 0.6314 -0.0976
vn -0.2254 0.1850 0.9565
vn -0.7400 0.6073 -0.2890
vn -0.3658 0.3002 0.8810
vn -0.6825 0.5601 -0.4696
vn -0.4918 0.4036 0.7715
vn -0.0625 0.0761 0.9951
vn -0.0625 0.0761 -0.9951
vn -0.6314 0.7693 -0.0976
vn -0.1850 0.2254 0.9565
vn -0.6073 0.7400 -0.2890
vn -0.3002 0.3658 0.8810
vn -0.5601 0.6825 -0.4696
vn -0.4036 0.4918 0.7715
vn -0.4913 0.5987 -0.6326
vn -0.4913 0.5987 0.6326
vn -0.4036 0.4918 -0.7715
vn -0.5601 0.6825 0.4696
vn -0.3002 0.3658 -0.8810
vn -0.6073 0.7400 0.2890
vn -0.1850 0.2254 -0.9565
vn -0.6314 0.7693 0.0976
vn -0.3651 0.6831 0.6326
vn -0.2999 0.5611 -0.7715
vn -0.4162 0.7786 0.4696
vn -0.2231 0.4173 -0.8810
vn -0.4513 0.8443 0.2890
vn -0.1374 0.2571 -0.9565
vn -0.4691 0.8777 0.0976
vn -0.0464 0.0869 0.9951
vn -0.0464 0.0869 -0.9951
vn -0.4691 0.8777 -0.0976
vn -0.1374 0.2571 0.9565
vn -0.4513 0.8443 -0.2890
vn -0.2231 0.4173 0.8810
vn -0.4162 0.7786 -0.4696
vn -0.2999 0.5611 0.7715
vn -0.3651 0.6831 -0.6326
vn -0.2889 0.9524 -0.0976
vn -0.0846 0.2790 0.9565
vn -0.2779 0.9161 -0.2890
vn -0.1374 0.4528 0.8810
vn -0.2563 0.8448 -0.4696
vn -0.1847 0.6088 0.7715
vn -0.2248 0.7412 -0.6326
vn -0.2248 0.7412 0.6326
vn -0.1847 0.6088 -0.7715
vn -0.2563 0.8448 0.4696
vn -0.1374 0.4528 -0.8810
vn -0.2779 0.9161 0.2890
vn -0.0846 0.2790 -0.9565
vn -0.2889 0.9524 0.0976
vn -0.0286 0.0942 0.9951
vn -0.0286 0.0942 -0.9951
vn -0.0624 0.6332 -0.7715
vn -0.0865 0.8786 0.4696
vn -0.0464 0.4709 -0.8810
vn -0.0938 0.9527 0.2890
vn -0.0286 0.2902 -0.9565
vn -0.0975 0.9904 0.0976
vn -0.0097 0.0980 0.9951
vn -0.0097 0.0980 -0.9951
vn -0.0975 0.9904 -0.0976
vn -0.0286 0.2902 0.9565
vn -0.0938 0.9527 -0.2890
vn -0.0464 0.4709 0.8810
vn -0.0865 0.8786 -0.4696
vn -0.0624 0.6332 0.7715
vn -0.0759 0.7708 -0.6326
vn -0.0759 0.7708 0.6326
vn 0.0938 0.9527 -0.2890
vn 0.0464 0.4709 0.8810
vn 0.0865 0.8786 -0.4696
vn 0.0624 0.6332 0.7715
vn 0.0759 0.7708 -0.6326
vn 0.0759 0.7708 0.6326
vn 0.0624 0.6332 -0.7715
vn 0.0865 0.8786 0.4696
vn 0.0464 0.4709 -0.8810
vn 0.0938 0.9527 0.2890
vn 0.0286 0.2902 -0.9565
vn 0.0975 0.9904 0.0976
vn 0.0097 0.0980 0.9951
vn 0.0097 0.0980 -0.9951
vn 0.0975 0.9904 -0.0976
vn 0.0286 0.2902 0.9565
vn 0.1374 0.4528 -0.8810
vn 0.2779 0.9161 0.2890
vn 0.0846 0.2790 -0.9565
vn 0.2889 0.9524 0.0976
vn 0.0286 0.0942 0.9951
vn 0.0286 0.0942 -0.9951
vn 0.2889 0.9524 -0.0976
vn 0.0846 0.2790 0.9565
vn 0.2779 0.9161 -0.2890
vn 0.1374 0.4528 0.8810
vn 0.2563 0.8448 -0.4696
vn 0.1847 0.6088 0.7715
vn 0.2248 0.7412 -0.6326
vn 0.2248 0.7412 0.6326
vn 0.1847 0.6088 -0.7715
vn 0.2563 0.8448 0.4696
vn 0.2230 0.4173 0.8810
vn 0.4162 0.7786 -0.4696
vn 0.2999 0.5611 0.7715
vn 0.3651 0.6831 -0.6326
vn 0.3651 0.6831 0.6326
vn 0.2999 0.5611 -0.7715
vn 0.4162 0.7786 0.4696
vn 0.2230 0.4173 -0.8810
vn 0.4513 0.8443 0.2890
vn 0.1374 0.2571 -0.9565
vn 0.4691 0.8777 0.0976
vn 0.0464 0.0869 0.9951
vn 0.0464 0.0869 -0.9951
vn 0.4691 0.8777 -0.0976
vn 0.1374 0.2571 0.9565
vn 0.4513 0.8443 -0.2890
vn 0.6073 0.7400 0.2890
vn 0.1850 0.2254 -0.9565
vn 0.6314 0.7693 0.0976
vn 0.0625 0.0761 0.9951
vn 0.0625 0.0761 -0.9951
vn 0.6314 0.7693 -0.0976
vn 0.1850 0.2254 0.9565
vn 0.6073 0.7400 -0.2890
vn 0.3002 0.3658 0.8810
vn 0.5601 0.6825 -0.4696
vn 0.4036 0.4918 0.7715
vn 0.4913 0.5987 -0.6326
vn 0.4913 0.5987 0.6326
vn 0.4036 0.4918 -0.7715
vn 0.5601 0.6825 0.4696
vn 0.3002 0.3658 -0.8810
vn 0.6825 0.5601 -0.4696
vn 0.4918 0.4036 0.7715
vn 0.5987 0.4913 -0.6326
vn 0.5987 0.4913 0.6326
vn 0.4918 0.4036 -0.7715
vn 0.6825 0.5601 0.4696
vn 0.3658 0.3002 -0.8810
vn 0.7400 0.6073 0.2890
vn 0.2254 0.1850 -0.9565
vn 0.7693 0.6314 0.0976
vn 0.0761 0.0625 0.9951
vn 0.0761 0.0625 -0.9951
vn 0.7693 0.6314 -0.0976
vn 0.2254 0.1850 0.9565
vn 0.7400 0.6073 -0.2890
vn 0.3658 0.3002 0.8810
vn 0.2571 0.1374 -0.9566
vn 0.8777 0.4691 0.0976
vn 0.0869 0.0464 0.9951
vn 0.0869 0.0464 -0.9951
vn 0.8777 0.4691 -0.0976
vn 0.2571 0.1374 0.9565
vn 0.8443 0.4513 -0.2890
vn 0.4173 0.2230 0.8810
vn 0.7786 0.4162 -0.4696
vn 0.5611 0.2999 0.7715
vn 0.6831 0.3651 -0.6326
vn 0.6831 0.3651 0.6326
vn 0.5611 0.2999 -0.7715
vn 0.7786 0.4162 0.4696
vn 0.4173 0.2230 -0.8810
vn 0.8443 0.4513 0.2890
vn 0.6088 0.1847 0.7715
vn 0.7412 0.2248 -0.6326
vn 0.7412 0.2248 0.6326
vn 0.6088 0.1847 -0.7715
vn 0.8448 0.2563 0.4696
vn 0.4528 0.1374 -0.8810
vn 0.9161 0.2779 0.2890
vn 0.2790 0.0846 -0.9565
vn 0.9524 0.2889 0.0976
vn 0.0942 0.0286 0.9951
vn 0.0942 0.0286 -0.9951
vn 0.9524 0.2889 -0.0976
vn 0.2790 0.0846 0.9565
vn 0.9161 0.2779 -0.2890
vn 0.4528 0.1374 0.8810
vn 0.8448 0.2563 -0.4696
vn 0.9904 0.0975 0.0976
vn 0.0980 0.0097 0.9951
vn 0.0980 0.0097 -0.9951
vn 0.9904 0.0975 -0.0976
vn 0.2902 0.0286 0.9565
vn 0.9527 0.0938 -0.2890
vn 0.4709 0.0464 0.8810
vn 0.8786 0.0865 -0.4696
vn 0.6332 0.0624 0.7715
vn 0.7708 0.0759 -0.6326
vn 0.7708 0.0759 0.6326
vn 0.6332 0.0624 -0.7715
vn 0.8786 0.0865 0.4696
vn 0.4709 0.0464 -0.8810
vn 0.9527 0.0938 0.2890
vn 0.2902 0.0286 -0.9565
vn 0.7708 -0.0759 -0.6326
vn 0.7708 -0.0759 0.6326
vn 0.6332 -0.0624 -0.7715
vn 0.8786 -0.0865 0.4696
vn 0.4709 -0.0464 -0.8810
vn 0.9527 -0.0938 0.2890
vn 0.2902 -0.0286 -0.9565
vn 0.9904 -0.0976 0.0976
vn 0.0980 -0.0097 0.9951
vn 0.0980 -0.0097 -0.9951
vn 0.9904 -0.0975 -0.0976
vn 0.2902 -0.0286 0.9565
vn 0.9527 -0.0938 -0.2890
vn 0.4709 -0.0464 0.8810
vn 0.8786 -0.0865 -0.4696
vn 0.6332 -0.0624 0.7715
vn 0.0942 -0.0286 -0.9951
vn 0.9524 -0.2889 -0.0976
vn 0.2790 -0.0846 0.9565
vn 0.9161 -0.2779 -0.2890
vn 0.4528 -0.1374 0.8810
vn 0.8448 -0.2563 -0.4696
vn 0.6088 -0.1847 0.7715
vn 0.7412 -0.2248 -0.6326
vn 0.7412 -0.2248 0.6326
vn 0.6088 -0.1847 -0.7715
vn 0.8448 -0.2563 0.4696
vn 0.4528 -0.1374 -0.8810
vn 0.9161 -0.2779 0.2890
vn 0.2790 -0.0846 -0.9565
vn 0.9524 -0.2889 0.0976
vn 0.0942 -0.0286 0.9951
vn 0.5611 -0.2999 -0.7715
vn 0.7786 -0.4162 0.4696
vn 0.4173 -0.2231 -0.8810
vn 0.8443 -0.4513 0.2890
vn 0.2571 -0.1374 -0.9565
vn 0.8777 -0.4691 0.0976
vn 0.0869 -0.0464 0.9951
vn 0.0869 -0.0464 -0.9951
vn 0.8777 -0.4691 -0.0976
vn 0.2571 -0.1374 0.9565
vn 0.8443 -0.4513 -0.2890
vn 0.4173 -0.2230 0.8810
vn 0.7786 -0.4162 -0.4696
vn 0.5611 -0.2999 0.7715
vn 0.6831 -0.3651 -0.6326
vn 0.6831 -0.3651 0.6326
vn 0.2254 -0.1850 0.9565
vn 0.7400 -0.6073 -0.2890
vn 0.3658 -0.3002 0.8810
vn 0.6825 -0.5601 -0.4696
vn 0.4918 -0.4036 0.7715
vn 0.5987 -0.4913 -0.6326
vn 0.5987 -0.4913 0.6326
vn 0.4918 -0.4036 -0.7715
vn 0.6825 -0.5601 0.4696
vn 0.3658 -0.3002 -0.8810
vn 0.7400 -0.6073 0.2890
vn 0.2254 -0.1850 -0.9565
vn 0.7693 -0.6314 0.0976
vn 0.0761 -0.0625 0.9951
vn 0.0761 -0.0625 -0.9951
vn 0.7693 -0.6314 -0.0976
vn 0.5601 -0.6825 0.4696
vn 0.3002 -0.3658 -0.8810
vn 0.6073 -0.7400 0.2890
vn 0.1850 -0.2254 -0.9565
vn 0.6314 -0.7693 0.0976
vn 0.0625 -0.0761 0.9951
vn 0.0625 -0.0761 -0.9951
vn 0.6314 -0.7693 -0.0976
vn 0.1850 -0.2254 0.9565
vn 0.6073 -0.7400 -0.2890
vn 0.3002 -0.3658 0.8810
vn 0.5601 -0.6825 -0.4696
vn 0.4036 -0.4918 0.7715
vn 0.4913 -0.5987 -0.6326
vn 0.4913 -0.5987 0.6326
vn 0.4036 -0.4918 -0.7715
vn 0.4513 -0.8443 -0.2890
vn 0.2231 -0.4173 0.8810
vn 0.4162 -0.7786 -0.4696
vn 0.2999 -0.5611 0.7715
vn 0.3651 -0.6831 -0.6326
vn 0.3651 -0.6831 0.6326
vn 0.2999 -0.5611 -0.7715
vn 0.4162 -0.7786 0.4696
vn 0.2230 -0.4173 -0.8810
vn 0.4513 -0.8443 0.2890
vn 0.1374 -0.2571 -0.9565
vn 0.4691 -0.8777 0.0976
vn 0.0464 -0.0869 0.9951
vn 0.0464 -0.0869 -0.9951
vn 0.4691 -0.8777 -0.0976
vn 0.1374 -0.2571 0.9565
vn 0.1374 -0.4528 -0.8810
vn 0.2779 -0.9161 0.2890
vn 0.0846 -0.2790 -0.9565
vn 0.2889 -0.9524 0.0976
vn 0.0286 -0.0942 0.9951
vn 0.0286 -0.0942 -0.9951
vn 0.2889 -0.9524 -0.0976
vn 0.0846 -0.2790 0.9565
vn 0.2779 -0.9161 -0.2890
vn 0.1374 -0.4528 0.8810
vn 0.2563 -0.8448 -0.4696
vn 0.1847 -0.6088 0.7715
vn 0.2248 -0.7412 -0.6326
vn 0.2248 -0.7412 0.6326
vn 0.1847 -0.6088 -0.7715
vn 0.2563 -0.8448 0.4696
vn 0.0464 -0.4709 0.8810
vn 0.0865 -0.8786 -0.4696
vn 0.0624 -0.6332 0.7715
vn 0.0759 -0.7708 -0.6326
vn 0.0759 -0.7708 0.6326
vn 0.0624 -0.6332 -0.7715
vn 0.0865 -0.8786 0.4696
vn 0.0464 -0.4709 -0.8810
vn 0.0938 -0.9527 0.2890
vn 0.0286 -0.2902 -0.9565
vn 0.0976 -0.9904 0.0975
vn 0.0097 -0.0980 0.9951
vn 0.0097 -0.0980 -0.9951
vn 0.0976 -0.9904 -0.0976
vn 0.0286 -0.2902 0.9565
vn 0.0938 -0.9527 -0.2890
vn -0.0975 -0.9904 0.0976
vn -0.0975 -0.9904 -0.0975
vn -0.2889 -0.9524 -0.0975
vn -0.2889 -0.9524 0.0976
vn -0.2230 -0.4173 -0.8810
vn -0.6314 -0.7693 0.0975
vn -0.6314 -0.7693 -0.0976
vn -0.2254 -0.1850 -0.9565
vn -0.4173 -0.2231 0.8810
vn -0.4173 -0.2230 -0.8810
vn -0.9904 0.0976 0.0976
vn -0.9904 0.0975 -0.0976
vn -0.4173 0.2231 0.8810
vn -0.4173 0.2230 -0.8810
vn 0.2231 0.4173 0.8810
vn 0.2231 0.4173 -0.8810
vn 0.2571 0.1374 -0.9565
vn 0.9904 -0.0975 0.0976
vn 0.9904 -0.0976 -0.0976
vn 0.2571 -0.1374 0.9566
vn 0.4173 -0.2231 0.8810
vn 0.2230 -0.4173 0.8810
vn 0.2231 -0.4173 -0.8810
vn 0.0976 -0.9904 0.0976
vn 0.0976 -0.9904 -0.0975
usemtl None
s off
f 9/1/1 20/2/1 478/3/1
f 3/4/2 12/5/2 13/6/2
f 478/3/3 21/7/3 479/8/3
f 3/4/4 14/9/4 4/10/4
f 479/8/5 22/11/5 480/12/5
f 4/10/6 15/13/6 5/14/6
f 480/15/7 23/16/7 10/17/7
f 5/14/8 16/18/8 6/19/8
f 10/17/9 24/20/9 481/21/9
f 6/19/10 17/22/10 7/23/10
f 481/21/11 25/24/11 482/25/11
f 7/23/12 18/26/12 8/27/12
f 1/28/13 297/29/13 11/30/13
f 206/31/14 482/25/14 25/24/14
f 8/27/15 19/32/15 9/1/15
f 1/28/16 12/5/16 2/33/16
f 19/32/17 33/34/17 34/35/17
f 11/30/18 27/36/18 12/5/18
f 20/2/19 34/35/19 35/37/19
f 12/5/20 28/38/20 13/6/20
f 20/2/21 36/39/21 21/7/21
f 13/6/22 29/40/22 14/9/22
f 22/11/23 36/39/23 37/41/23
f 14/42/24 30/43/24 15/13/24
f 22/44/25 38/45/25 23/16/25
f 15/13/26 31/46/26 16/18/26
f 23/16/27 39/47/27 24/20/27
f 16/18/28 32/48/28 17/22/28
f 24/20/29 40/49/29 25/24/29
f 17/22/30 33/34/30 18/26/30
f 11/30/31 297/29/31 26/50/31
f 206/31/32 25/24/32 40/49/32
f 37/51/33 53/52/33 38/45/33
f 30/43/34 46/53/34 31/46/34
f 38/45/35 54/54/35 39/47/35
f 32/48/36 46/53/36 47/55/36
f 39/47/37 55/56/37 40/49/37
f 32/48/38 48/57/38 33/34/38
f 26/50/39 297/29/39 41/58/39
f 206/31/40 40/49/40 55/56/40
f 33/34/41 49/59/41 34/35/41
f 26/50/42 42/60/42 27/36/42
f 34/35/43 50/61/43 35/37/43
f 27/36/44 43/62/44 28/38/44
f 36/39/45 50/61/45 51/63/45
f 28/38/46 44/64/46 29/40/46
f 37/41/47 51/63/47 52/65/47
f 29/66/48 45/67/48 30/43/48
f 41/58/49 57/68/49 42/60/49
f 49/59/50 65/69/50 50/61/50
f 42/60/51 58/70/51 43/62/51
f 51/63/52 65/69/52 66/71/52
f 43/62/53 59/72/53 44/64/53
f 51/73/54 67/74/54 52/75/54
f 44/64/55 60/76/55 45/77/55
f 52/75/56 68/78/56 53/52/56
f 45/67/57 61/79/57 46/53/57
f 53/52/58 69/80/58 54/54/58
f 46/53/59 62/81/59 47/55/59
f 54/54/60 70/82/60 55/56/60
f 48/57/61 62/81/61 63/83/61
f 41/58/62 297/29/62 56/84/62
f 206/31/63 55/56/63 70/82/63
f 48/57/64 64/85/64 49/59/64
f 60/86/65 76/87/65 61/79/65
f 69/80/66 83/88/66 84/89/66
f 61/79/67 77/90/67 62/81/67
f 69/80/68 85/91/68 70/82/68
f 63/83/69 77/90/69 78/92/69
f 56/84/70 297/29/70 71/93/70
f 206/31/71 70/82/71 85/91/71
f 63/83/72 79/94/72 64/85/72
f 56/84/73 72/95/73 57/68/73
f 64/85/74 80/96/74 65/69/74
f 57/68/75 73/97/75 58/70/75
f 66/71/76 80/96/76 81/98/76
f 58/70/77 74/99/77 59/72/77
f 66/100/78 82/101/78 67/74/78
f 60/76/79 74/99/79 75/102/79
f 68/78/80 82/101/80 83/88/80
f 79/94/81 95/103/81 80/96/81
f 72/95/82 88/104/82 73/97/82
f 81/98/83 95/103/83 96/105/83
f 73/97/84 89/106/84 74/99/84
f 82/107/85 96/105/85 97/108/85
f 75/109/86 89/110/86 90/111/86
f 82/101/87 98/112/87 83/88/87
f 75/109/88 91/113/88 76/87/88
f 84/89/89 98/112/89 99/114/89
f 77/90/90 91/113/90 92/115/90
f 84/89/91 100/116/91 85/91/91
f 77/90/92 93/117/92 78/92/92
f 71/93/93 297/29/93 86/118/93
f 206/31/94 85/91/94 100/116/94
f 78/92/95 94/119/95 79/94/95
f 71/93/96 87/120/96 72/95/96
f 98/112/97 114/121/97 99/114/97
f 92/115/98 106/122/98 107/123/98
f 100/116/99 114/121/99 115/124/99
f 92/115/100 108/125/100 93/117/100
f 86/118/101 297/29/101 101/126/101
f 206/31/102 100/116/102 115/124/102
f 93/117/103 109/127/103 94/119/103
f 86/118/104 102/128/104 87/120/104
f 94/119/105 110/129/105 95/103/105
f 87/120/106 103/130/106 88/104/106
f 96/105/107 110/129/107 111/131/107
f 89/106/108 103/130/108 104/132/108
f 97/108/109 111/131/109 112/133/109
f 89/110/110 105/134/110 90/111/110
f 97/135/111 113/136/111 98/112/111
f 90/111/112 106/122/112 91/113/112
f 111/131/113 125/137/113 126/138/113
f 103/130/114 119/139/114 104/132/114
f 111/131/115 127/140/115 112/133/115
f 104/141/116 120/142/116 105/134/116
f 113/136/117 127/143/117 128/144/117
f 105/134/118 121/145/118 106/122/118
f 114/121/119 128/144/119 129/146/119
f 107/123/120 121/145/120 122/147/120
f 115/124/121 129/146/121 130/148/121
f 107/123/122 123/149/122 108/125/122
f 101/126/123 297/29/123 116/150/123
f 206/31/124 115/124/124 130/148/124
f 109/127/125 123/149/125 124/151/125
f 101/126/126 117/152/126 102/128/126
f 109/127/127 125/137/127 110/129/127
f 102/128/128 118/153/128 103/130/128
f 130/148/129 144/154/129 145/155/129
f 122/147/130 138/156/130 123/149/130
f 116/150/131 297/29/131 131/157/131
f 206/31/132 130/148/132 145/155/132
f 123/149/133 139/158/133 124/151/133
f 117/152/134 131/157/134 132/159/134
f 124/151/135 140/160/135 125/137/135
f 117/152/136 133/161/136 118/153/136
f 126/138/137 140/160/137 141/162/137
f 118/153/138 134/163/138 119/139/138
f 126/138/139 142/164/139 127/140/139
f 120/142/140 134/165/140 135/166/140
f 128/144/141 142/167/141 143/168/141
f 120/142/142 136/169/142 121/145/142
f 128/144/143 144/154/143 129/146/143
f 122/147/144 136/169/144 137/170/144
f 133/161/145 149/171/145 134/163/145
f 141/162/146 157/172/146 142/164/146
f 134/165/147 150/173/147 135/166/147
f 142/167/148 158/174/148 143/168/148
f 135/166/149 151/175/149 136/169/149
f 144/154/150 158/174/150 159/176/150
f 137/170/151 151/175/151 152/177/151
f 144/154/152 160/178/152 145/155/152
f 137/170/153 153/179/153 138/156/153
f 131/157/154 297/29/154 146/180/154
f 206/31/155 145/155/155 160/178/155
f 138/156/156 154/181/156 139/158/156
f 131/157/157 147/182/157 132/159/157
f 139/158/158 155/183/158 140/160/158
f 133/161/159 147/182/159 148/184/159
f 141/162/160 155/183/160 156/185/160
f 152/177/161 168/186/161 153/179/161
f 146/180/162 297/29/162 161/187/162
f 206/31/163 160/178/163 175/188/163
f 154/181/164 168/186/164 169/189/164
f 146/180/165 162/190/165 147/182/165
f 154/181/166 170/191/166 155/183/166
f 147/182/167 163/192/167 148/184/167
f 156/185/168 170/191/168 171/193/168
f 148/184/169 164/194/169 149/171/169
f 156/185/170 172/195/170 157/172/170
f 150/173/171 164/196/171 165/197/171
f 158/174/172 172/198/172 173/199/172
f 150/173/173 166/200/173 151/175/173
f 158/174/174 174/201/174 159/176/174
f 152/177/175 166/200/175 167/202/175
f 159/176/176 175/188/176 160/178/176
f 171/203/177 187/204/177 172/198/177
f 164/194/178 180/205/178 165/206/178
f 173/199/179 187/204/179 188/207/179
f 165/197/180 181/208/180 166/200/180
f 173/199/181 189/209/181 174/201/181
f 167/202/182 181/208/182 182/210/182
f 175/188/183 189/209/183 190/211/183
f 167/202/184 183/212/184 168/186/184
f 161/187/185 297/29/185 176/213/185
f 206/31/186 175/188/186 190/211/186
f 168/186/187 184/214/187 169/189/187
f 161/187/188 177/215/188 162/190/188
f 169/189/189 185/216/189 170/191/189
f 162/190/190 178/217/190 163/192/190
f 170/191/191 186/218/191 171/193/191
f 163/192/192 179/219/192 164/194/192
f 176/213/193 297/29/193 191/220/193
f 206/31/194 190/211/194 205/221/194
f 184/222/195 198/223/195 199/224/195
f 176/213/196 192/225/196 177/215/196
f 184/222/197 200/226/197 185/227/197
f 177/215/198 193/228/198 178/217/198
f 186/229/199 200/226/199 201/230/199
f 179/219/200 193/228/200 194/231/200
f 186/232/201 202/233/201 187/204/201
f 180/205/202 194/231/202 195/234/202
f 188/207/203 202/233/203 203/235/203
f 180/236/204 196/237/204 181/238/204
f 188/207/205 204/239/205 189/209/205
f 182/240/206 196/237/206 197/241/206
f 190/211/207 204/239/207 205/221/207
f 182/240/208 198/223/208 183/242/208
f 194/243/209 211/244/209 195/245/209
f 203/235/210 218/246/210 219/247/210
f 195/245/211 212/248/211 196/237/211
f 203/235/212 220/249/212 204/239/212
f 197/241/213 212/248/213 213/250/213
f 204/239/214 221/251/214 205/221/214
f 197/241/215 214/252/215 198/223/215
f 191/220/216 297/29/216 207/253/216
f 206/31/217 205/221/217 221/251/217
f 198/223/218 215/254/218 199/224/218
f 191/220/219 208/255/219 192/225/219
f 199/224/220 216/256/220 200/226/220
f 193/228/221 208/255/221 209/257/221
f 201/230/222 216/256/222 217/258/222
f 193/228/223 210/259/223 194/231/223
f 201/230/224 218/260/224 202/261/224
f 214/252/225 230/262/225 215/254/225
f 207/253/226 223/263/226 208/255/226
f 215/254/227 231/264/227 216/256/227
f 208/255/228 224/265/228 209/257/228
f 217/258/229 231/264/229 232/266/229
f 209/257/230 225/267/230 210/259/230
f 217/258/231 233/268/231 218/260/231
f 210/269/232 226/270/232 211/244/232
f 218/246/233 234/271/233 219/247/233
f 211/244/234 227/272/234 212/248/234
f 219/247/235 235/273/235 220/249/235
f 213/250/236 227/272/236 228/274/236
f 221/251/237 235/273/237 236/275/237
f 213/250/238 229/276/238 214/252/238
f 207/253/239 297/29/239 222/277/239
f 206/31/240 221/251/240 236/275/240
f 234/271/241 248/278/241 249/279/241
f 226/270/242 242/280/242 227/272/242
f 234/271/243 250/281/243 235/273/243
f 228/274/244 242/280/244 243/282/244
f 236/275/245 250/281/245 251/283/245
f 228/274/246 244/284/246 229/276/246
f 222/277/247 297/29/247 237/285/247
f 206/31/248 236/275/248 251/283/248
f 229/276/249 245/286/249 230/262/249
f 222/277/250 238/287/250 223/263/250
f 230/262/251 246/288/251 231/264/251
f 224/265/252 238/287/252 239/289/252
f 232/266/253 246/288/253 247/290/253
f 225/267/254 239/289/254 240/291/254
f 232/266/255 248/278/255 233/268/255
f 225/292/256 241/293/256 226/270/256
f 245/286/257 261/294/257 246/288/257
f 238/287/258 254/295/258 239/289/258
f 247/290/259 261/294/259 262/296/259
f 240/291/260 254/295/260 255/297/260
f 247/290/261 263/298/261 248/278/261
f 241/293/262 255/299/262 256/300/262
f 248/278/263 264/301/263 249/279/263
f 241/293/264 257/302/264 242/280/264
f 249/279/265 265/303/265 250/281/265
f 243/282/266 257/302/266 258/304/266
f 250/281/267 266/305/267 251/283/267
f 243/282/268 259/306/268 244/284/268
f 237/285/269 297/29/269 252/307/269
f 206/31/270 251/283/270 266/305/270
f 244/284/271 260/308/271 245/286/271
f 237/285/272 253/309/272 238/287/272
f 265/303/273 279/310/273 280/311/273
f 258/304/274 272/312/274 273/313/274
f 266/305/275 280/311/275 281/314/275
f 258/304/276 274/315/276 259/306/276
f 252/307/277 297/29/277 267/316/277
f 206/31/278 266/305/278 281/314/278
f 260/308/279 274/315/279 275/317/279
f 252/307/280 268/318/280 253/309/280
f 260/308/281 276/319/281 261/294/281
f 253/309/282 269/320/282 254/295/282
f 262/296/283 276/319/283 277/321/283
f 255/297/284 269/320/284 270/322/284
f 262/296/285 278/323/285 263/298/285
f 256/300/286 270/324/286 271/325/286
f 263/326/287 279/310/287 264/301/287
f 256/300/288 272/312/288 257/302/288
f 268/318/289 284/327/289 269/320/289
f 277/321/290 291/328/290 292/329/290
f 269/320/291 285/330/291 270/322/291
f 277/321/292 293/331/292 278/323/292
f 271/325/293 285/332/293 286/333/293
f 279/310/294 293/334/294 294/335/294
f 271/325/295 287/336/295 272/312/295
f 279/310/296 295/337/296 280/311/296
f 273/313/297 287/336/297 288/338/297
f 281/314/298 295/337/298 296/339/298
f 273/313/299 289/340/299 274/315/299
f 267/316/300 297/29/300 282/341/300
f 206/31/301 281/314/301 296/339/301
f 274/315/302 290/342/302 275/317/302
f 267/316/303 283/343/303 268/318/303
f 275/317/304 291/328/304 276/319/304
f 288/338/305 303/344/305 304/345/305
f 295/337/306 312/346/306 296/339/306
f 289/340/307 304/345/307 305/347/307
f 282/341/308 297/29/308 298/348/308
f 206/31/309 296/339/309 312/346/309
f 289/340/310 306/349/310 290/342/310
f 282/341/311 299/350/311 283/343/311
f 290/342/312 307/351/312 291/328/312
f 283/343/313 300/352/313 284/327/313
f 292/329/314 307/351/314 308/353/314
f 285/330/315 300/352/315 301/354/315
f 292/355/316 309/356/316 293/334/316
f 286/357/317 301/354/317 302/358/317
f 293/334/318 310/359/318 294/335/318
f 286/333/319 303/344/319 287/336/319
f 294/335/320 311/360/320 295/337/320
f 308/353/321 322/361/321 323/362/321
f 301/354/322 315/363/322 316/364/322
f 308/365/323 324/366/323 309/356/323
f 302/358/324 316/364/324 317/367/324
f 309/356/325 325/368/325 310/359/325
f 302/369/326 318/370/326 303/344/326
f 311/360/327 325/368/327 326/371/327
f 304/345/328 318/370/328 319/372/328
f 311/360/329 327/373/329 312/346/329
f 304/345/330 320/374/330 305/347/330
f 298/348/331 297/29/331 313/375/331
f 206/31/332 312/346/332 327/373/332
f 305/347/333 321/376/333 306/349/333
f 298/348/334 314/377/334 299/350/334
f 306/349/335 322/361/335 307/351/335
f 299/350/336 315/363/336 300/352/336
f 327/373/337 341/378/337 342/379/337
f 319/372/338 335/380/338 320/374/338
f 313/375/339 297/29/339 328/381/339
f 206/31/340 327/373/340 342/379/340
f 320/374/341 336/382/341 321/376/341
f 313/375/342 329/383/342 314/377/342
f 321/376/343 337/384/343 322/361/343
f 314/377/344 330/385/344 315/363/344
f 323/362/345 337/384/345 338/386/345
f 316/364/346 330/385/346 331/387/346
f 324/388/347 338/386/347 339/389/347
f 317/390/348 331/391/348 332/392/348
f 324/366/349 340/393/349 325/368/349
f 317/390/350 333/394/350 318/370/350
f 326/371/351 340/393/351 341/378/351
f 319/372/352 333/394/352 334/395/352
f 331/387/353 345/396/353 346/397/353
f 338/386/354 354/398/354 339/389/354
f 332/392/355 346/399/355 347/400/355
f 339/401/356 355/402/356 340/393/356
f 332/392/357 348/403/357 333/394/357
f 341/378/358 355/402/358 356/404/358
f 334/395/359 348/403/359 349/405/359
f 341/378/360 357/406/360 342/379/360
f 334/395/361 350/407/361 335/380/361
f 328/381/362 297/29/362 343/408/362
f 206/31/363 342/379/363 357/406/363
f 335/380/364 351/409/364 336/382/364
f 329/383/365 343/408/365 344/410/365
f 336/382/366 352/411/366 337/384/366
f 329/383/367 345/396/367 330/385/367
f 338/386/368 352/411/368 353/412/368
f 349/405/369 365/413/369 350/407/369
f 343/408/370 297/29/370 358/414/370
f 206/31/371 357/406/371 372/415/371
f 351/409/372 365/413/372 366/416/372
f 344/410/373 358/414/373 359/417/373
f 351/409/374 367/418/374 352/411/374
f 344/410/375 360/419/375 345/396/375
f 353/412/376 367/418/376 368/420/376
f 346/397/377 360/419/377 361/421/377
f 353/412/378 369/422/378 354/398/378
f 346/399/379 362/423/379 347/400/379
f 355/402/380 369/424/380 370/425/380
f 347/400/381 363/426/381 348/403/381
f 356/404/382 370/425/382 371/427/382
f 349/405/383 363/426/383 364/428/383
f 356/404/384 372/415/384 357/406/384
f 368/420/385 384/429/385 369/422/385
f 362/423/386 376/430/386 377/431/386
f 369/424/387 385/432/387 370/425/387
f 362/423/388 378/433/388 363/426/388
f 371/427/389 385/432/389 386/434/389
f 364/428/390 378/433/390 379/435/390
f 371/427/391 387/436/391 372/415/391
f 364/428/392 380/437/392 365/413/392
f 358/414/393 297/29/393 373/438/393
f 206/31/394 372/415/394 387/436/394
f 366/416/395 380/437/395 381/439/395
f 359/417/396 373/438/396 374/440/396
f 366/416/397 382/441/397 367/418/397
f 359/417/398 375/442/398 360/419/398
f 368/420/399 382/441/399 383/443/399
f 361/421/400 375/442/400 376/444/400
f 206/31/401 387/436/401 402/445/401
f 380/437/402 396/446/402 381/439/402
f 373/438/403 389/447/403 374/440/403
f 381/439/404 397/448/404 382/441/404
f 374/440/405 390/449/405 375/442/405
f 383/443/406 397/448/406 398/450/406
f 376/444/407 390/449/407 391/451/407
f 383/443/408 399/452/408 384/429/408
f 376/430/409 392/453/409 377/431/409
f 384/454/410 400/455/410 385/432/410
f 377/431/411 393/456/411 378/433/411
f 386/434/412 400/455/412 401/457/412
f 379/435/413 393/456/413 394/458/413
f 386/434/414 402/445/414 387/436/414
f 379/435/415 395/459/415 380/437/415
f 373/438/416 297/29/416 388/460/416
f 399/461/417 415/462/417 400/455/417
f 392/453/418 408/463/418 393/456/418
f 401/457/419 415/462/419 416/464/419
f 394/458/420 408/463/420 409/465/420
f 401/457/421 417/466/421 402/445/421
f 394/458/422 410/467/422 395/459/422
f 388/460/423 297/29/423 403/468/423
f 206/31/424 402/445/424 417/466/424
f 396/446/425 410/467/425 411/469/425
f 388/460/426 404/470/426 389/447/426
f 396/446/427 412/471/427 397/448/427
f 390/449/428 404/470/428 405/472/428
f 398/450/429 412/471/429 413/473/429
f 391/451/430 405/472/430 406/474/430
f 398/450/431 414/475/431 399/452/431
f 392/453/432 406/476/432 407/477/432
f 403/468/433 419/478/433 404/470/433
f 411/469/434 427/479/434 412/471/434
f 404/470/435 420/480/435 405/472/435
f 413/473/436 427/479/436 428/481/436
f 405/472/437 421/482/437 406/474/437
f 413/483/438 429/484/438 414/485/438
f 407/486/439 421/482/439 422/487/439
f 414/485/440 430/488/440 415/462/440
f 407/477/441 423/489/441 408/463/441
f 415/462/442 431/490/442 416/464/442
f 409/465/443 423/489/443 424/491/443
f 416/464/444 432/492/444 417/466/444
f 409/465/445 425/493/445 410/467/445
f 403/468/446 297/29/446 418/494/446
f 206/31/447 417/466/447 432/492/447
f 411/469/448 425/493/448 426/495/448
f 422/496/449 438/497/449 423/498/449
f 430/488/450 446/499/450 431/490/450
f 424/500/451 438/497/451 439/501/451
f 431/490/452 447/502/452 432/492/452
f 425/503/453 439/501/453 440/504/453
f 418/494/454 297/29/454 433/505/454
f 206/31/455 432/492/455 447/502/455
f 425/503/456 441/506/456 426/507/456
f 418/494/457 434/508/457 419/478/457
f 426/507/458 442/509/458 427/510/458
f 419/478/459 435/511/459 420/480/459
f 428/512/460 442/509/460 443/513/460
f 420/480/461 436/514/461 421/482/461
f 428/515/462 444/516/462 429/484/462
f 422/487/463 436/514/463 437/517/463
f 430/488/464 444/516/464 445/518/464
f 441/506/465 457/519/465 442/509/465
f 435/511/466 449/520/466 450/521/466
f 443/513/467 457/519/467 458/522/467
f 436/514/468 450/521/468 451/523/468
f 443/513/469 459/524/469 444/525/469
f 437/526/470 451/527/470 452/528/470
f 444/516/471 460/529/471 445/518/471
f 437/526/472 453/530/472 438/497/472
f 445/518/473 461/531/473 446/499/473
f 439/501/474 453/530/474 454/532/474
f 446/499/475 462/533/475 447/502/475
f 439/501/476 455/534/476 440/504/476
f 433/505/477 297/29/477 448/535/477
f 206/31/478 447/502/478 462/533/478
f 440/504/479 456/536/479 441/506/479
f 434/508/480 448/535/480 449/520/480
f 460/529/481 476/537/481 461/531/481
f 454/532/482 468/538/482 469/539/482
f 462/533/483 476/537/483 477/540/483
f 454/532/484 470/541/484 455/534/484
f 448/535/485 297/29/485 463/542/485
f 206/31/486 462/533/486 477/540/486
f 455/534/487 471/543/487 456/536/487
f 448/535/488 464/544/488 449/520/488
f 456/536/489 472/545/489 457/519/489
f 449/520/490 465/546/490 450/521/490
f 458/522/491 472/545/491 473/547/491
f 450/521/492 466/548/492 451/523/492
f 458/522/493 474/549/493 459/524/493
f 452/528/494 466/550/494 467/551/494
f 459/552/495 475/553/495 460/529/495
f 452/528/496 468/538/496 453/530/496
f 465/546/497 2/33/497 3/4/497
f 473/547/498 478/3/498 479/8/498
f 466/548/499 3/4/499 4/10/499
f 473/547/500 480/12/500 474/549/500
f 467/551/501 4/10/501 5/14/501
f 474/554/502 10/17/502 475/553/502
f 468/538/503 5/14/503 6/19/503
f 475/553/504 481/21/504 476/537/504
f 469/539/505 6/19/505 7/23/505
f 476/537/506 482/25/506 477/540/506
f 470/541/507 7/23/507 8/27/507
f 463/542/508 297/29/508 1/28/508
f 206/31/509 477/540/509 482/25/509
f 470/541/510 9/1/510 471/543/510
f 464/544/511 1/28/511 2/33/511
f 471/543/512 478/3/512 472/545/512
f 9/1/1 19/32/1 20/2/1
f 3/4/2 2/33/2 12/5/2
f 478/3/3 20/2/3 21/7/3
f 3/4/4 13/6/4 14/9/4
f 479/8/5 21/7/5 22/11/5
f 4/10/6 14/42/6 15/13/6
f 480/15/7 22/44/7 23/16/7
f 5/14/8 15/13/8 16/18/8
f 10/17/9 23/16/9 24/20/9
f 6/19/10 16/18/10 17/22/10
f 481/21/11 24/20/11 25/24/11
f 7/23/513 17/22/513 18/26/513
f 8/27/514 18/26/514 19/32/514
f 1/28/16 11/30/16 12/5/16
f 19/32/515 18/26/515 33/34/515
f 11/30/18 26/50/18 27/36/18
f 20/2/19 19/32/19 34/35/19
f 12/5/20 27/36/20 28/38/20
f 20/2/21 35/37/21 36/39/21
f 13/6/22 28/38/22 29/40/22
f 22/11/23 21/7/23 36/39/23
f 14/42/24 29/66/24 30/43/24
f 22/44/25 37/51/25 38/45/25
f 15/13/26 30/43/26 31/46/26
f 23/16/27 38/45/27 39/47/27
f 16/18/28 31/46/28 32/48/28
f 24/20/29 39/47/29 40/49/29
f 17/22/516 32/48/516 33/34/516
f 37/51/33 52/75/33 53/52/33
f 30/43/34 45/67/34 46/53/34
f 38/45/517 53/52/517 54/54/517
f 32/48/36 31/46/36 46/53/36
f 39/47/37 54/54/37 55/56/37
f 32/48/38 47/55/38 48/57/38
f 33/34/41 48/57/41 49/59/41
f 26/50/42 41/58/42 42/60/42
f 34/35/43 49/59/43 50/61/43
f 27/36/44 42/60/44 43/62/44
f 36/39/45 35/37/45 50/61/45
f 28/38/46 43/62/46 44/64/46
f 37/41/47 36/39/47 51/63/47
f 29/66/48 44/555/48 45/67/48
f 41/58/49 56/84/49 57/68/49
f 49/59/50 64/85/50 65/69/50
f 42/60/51 57/68/51 58/70/51
f 51/63/52 50/61/52 65/69/52
f 43/62/53 58/70/53 59/72/53
f 51/73/54 66/100/54 67/74/54
f 44/64/55 59/72/55 60/76/55
f 52/75/56 67/74/56 68/78/56
f 45/67/57 60/86/57 61/79/57
f 53/52/58 68/78/58 69/80/58
f 46/53/59 61/79/59 62/81/59
f 54/54/60 69/80/60 70/82/60
f 48/57/518 47/55/518 62/81/518
f 48/57/519 63/83/519 64/85/519
f 60/86/65 75/109/65 76/87/65
f 69/80/66 68/78/66 83/88/66
f 61/79/67 76/87/67 77/90/67
f 69/80/520 84/89/520 85/91/520
f 63/83/69 62/81/69 77/90/69
f 63/83/72 78/92/72 79/94/72
f 56/84/73 71/93/73 72/95/73
f 64/85/74 79/94/74 80/96/74
f 57/68/75 72/95/75 73/97/75
f 66/71/76 65/69/76 80/96/76
f 58/70/77 73/97/77 74/99/77
f 66/100/78 81/556/78 82/101/78
f 60/76/79 59/72/79 74/99/79
f 68/78/80 67/74/80 82/101/80
f 79/94/81 94/119/81 95/103/81
f 72/95/521 87/120/521 88/104/521
f 81/98/83 80/96/83 95/103/83
f 73/97/84 88/104/84 89/106/84
f 82/107/85 81/98/85 96/105/85
f 75/109/86 74/557/86 89/110/86
f 82/101/87 97/135/87 98/112/87
f 75/109/88 90/111/88 91/113/88
f 84/89/522 83/88/522 98/112/522
f 77/90/90 76/87/90 91/113/90
f 84/89/91 99/114/91 100/116/91
f 77/90/92 92/115/92 93/117/92
f 78/92/95 93/117/95 94/119/95
f 71/93/96 86/118/96 87/120/96
f 98/112/97 113/136/97 114/121/97
f 92/115/98 91/113/98 106/122/98
f 100/116/99 99/114/99 114/121/99
f 92/115/100 107/123/100 108/125/100
f 93/117/103 108/125/103 109/127/103
f 86/118/104 101/126/104 102/128/104
f 94/119/105 109/127/105 110/129/105
f 87/120/106 102/128/106 103/130/106
f 96/105/107 95/103/107 110/129/107
f 89/106/108 88/104/108 103/130/108
f 97/108/109 96/105/109 111/131/109
f 89/110/110 104/141/110 105/134/110
f 97/135/111 112/558/111 113/136/111
f 90/111/112 105/134/112 106/122/112
f 111/131/113 110/129/113 125/137/113
f 103/130/114 118/153/114 119/139/114
f 111/131/115 126/138/115 127/140/115
f 104/141/116 119/559/116 120/142/116
f 113/136/117 112/558/117 127/143/117
f 105/134/118 120/142/118 121/145/118
f 114/121/119 113/136/119 128/144/119
f 107/123/120 106/122/120 121/145/120
f 115/124/121 114/121/121 129/146/121
f 107/123/122 122/147/122 123/149/122
f 109/127/125 108/125/125 123/149/125
f 101/126/126 116/150/126 117/152/126
f 109/127/127 124/151/127 125/137/127
f 102/128/128 117/152/128 118/153/128
f 130/148/129 129/146/129 144/154/129
f 122/147/523 137/170/523 138/156/523
f 123/149/524 138/156/524 139/158/524
f 117/152/134 116/150/134 131/157/134
f 124/151/135 139/158/135 140/160/135
f 117/152/136 132/159/136 133/161/136
f 126/138/137 125/137/137 140/160/137
f 118/153/138 133/161/138 134/163/138
f 126/138/139 141/162/139 142/164/139
f 120/142/140 119/559/140 134/165/140
f 128/144/141 127/143/141 142/167/141
f 120/142/142 135/166/142 136/169/142
f 128/144/143 143/168/143 144/154/143
f 122/147/144 121/145/144 136/169/144
f 133/161/145 148/184/145 149/171/145
f 141/162/146 156/185/146 157/172/146
f 134/165/147 149/560/147 150/173/147
f 142/167/148 157/561/148 158/174/148
f 135/166/149 150/173/149 151/175/149
f 144/154/150 143/168/150 158/174/150
f 137/170/151 136/169/151 151/175/151
f 144/154/152 159/176/152 160/178/152
f 137/170/153 152/177/153 153/179/153
f 138/156/156 153/179/156 154/181/156
f 131/157/157 146/180/157 147/182/157
f 139/158/158 154/181/158 155/183/158
f 133/161/159 132/159/159 147/182/159
f 141/162/160 140/160/160 155/183/160
f 152/177/161 167/202/161 168/186/161
f 154/181/164 153/179/164 168/186/164
f 146/180/165 161/187/165 162/190/165
f 154/181/166 169/189/166 170/191/166
f 147/182/525 162/190/525 163/192/525
f 156/185/168 155/183/168 170/191/168
f 148/184/169 163/192/169 164/194/169
f 156/185/170 171/193/170 172/195/170
f 150/173/171 149/560/171 164/196/171
f 158/174/172 157/561/172 172/198/172
f 150/173/173 165/197/173 166/200/173
f 158/174/526 173/199/526 174/201/526
f 152/177/175 151/175/175 166/200/175
f 159/176/176 174/201/176 175/188/176
f 171/203/177 186/232/177 187/204/177
f 164/194/178 179/219/178 180/205/178
f 173/199/179 172/198/179 187/204/179
f 165/197/180 180/562/180 181/208/180
f 173/199/181 188/207/181 189/209/181
f 167/202/182 166/200/182 181/208/182
f 175/188/183 174/201/183 189/209/183
f 167/202/184 182/210/184 183/212/184
f 168/186/187 183/212/187 184/214/187
f 161/187/188 176/213/188 177/215/188
f 169/189/189 184/214/189 185/216/189
f 162/190/190 177/215/190 178/217/190
f 170/191/191 185/216/191 186/218/191
f 163/192/192 178/217/192 179/219/192
f 184/222/195 183/242/195 198/223/195
f 176/213/196 191/220/196 192/225/196
f 184/222/197 199/224/197 200/226/197
f 177/215/198 192/225/198 193/228/198
f 186/229/199 185/227/199 200/226/199
f 179/219/200 178/217/200 193/228/200
f 186/232/201 201/563/201 202/233/201
f 180/205/202 179/219/202 194/231/202
f 188/207/203 187/204/203 202/233/203
f 180/236/204 195/245/204 196/237/204
f 188/207/205 203/235/205 204/239/205
f 182/240/206 181/238/206 196/237/206
f 190/211/207 189/209/207 204/239/207
f 182/240/208 197/241/208 198/223/208
f 194/243/209 210/269/209 211/244/209
f 203/235/210 202/233/210 218/246/210
f 195/245/211 211/244/211 212/248/211
f 203/235/212 219/247/212 220/249/212
f 197/241/213 196/237/213 212/248/213
f 204/239/214 220/249/214 221/251/214
f 197/241/215 213/250/215 214/252/215
f 198/223/218 214/252/218 215/254/218
f 191/220/219 207/253/219 208/255/219
f 199/224/220 215/254/220 216/256/220
f 193/228/221 192/225/221 208/255/221
f 201/230/222 200/226/222 216/256/222
f 193/228/223 209/257/223 210/259/223
f 201/230/224 217/258/224 218/260/224
f 214/252/225 229/276/225 230/262/225
f 207/253/226 222/277/226 223/263/226
f 215/254/227 230/262/227 231/264/227
f 208/255/228 223/263/228 224/265/228
f 217/258/229 216/256/229 231/264/229
f 209/257/230 224/265/230 225/267/230
f 217/258/231 232/266/231 233/268/231
f 210/269/232 225/292/232 226/270/232
f 218/246/233 233/564/233 234/271/233
f 211/244/234 226/270/234 227/272/234
f 219/247/235 234/271/235 235/273/235
f 213/250/236 212/248/236 227/272/236
f 221/251/237 220/249/237 235/273/237
f 213/250/238 228/274/238 229/276/238
f 234/271/241 233/564/241 248/278/241
f 226/270/242 241/293/242 242/280/242
f 234/271/243 249/279/243 250/281/243
f 228/274/244 227/272/244 242/280/244
f 236/275/245 235/273/245 250/281/245
f 228/274/246 243/282/246 244/284/246
f 229/276/249 244/284/249 245/286/249
f 222/277/250 237/285/250 238/287/250
f 230/262/251 245/286/251 246/288/251
f 224/265/252 223/263/252 238/287/252
f 232/266/253 231/264/253 246/288/253
f 225/267/254 224/265/254 239/289/254
f 232/266/255 247/290/255 248/278/255
f 225/292/256 240/565/256 241/293/256
f 245/286/257 260/308/257 261/294/257
f 238/287/258 253/309/258 254/295/258
f 247/290/259 246/288/259 261/294/259
f 240/291/260 239/289/260 254/295/260
f 247/290/261 262/296/261 263/298/261
f 241/293/262 240/565/262 255/299/262
f 248/278/263 263/326/263 264/301/263
f 241/293/264 256/300/264 257/302/264
f 249/279/265 264/301/265 265/303/265
f 243/282/266 242/280/266 257/302/266
f 250/281/267 265/303/267 266/305/267
f 243/282/268 258/304/268 259/306/268
f 244/284/271 259/306/271 260/308/271
f 237/285/272 252/307/272 253/309/272
f 265/303/273 264/301/273 279/310/273
f 258/304/274 257/302/274 272/312/274
f 266/305/275 265/303/275 280/311/275
f 258/304/276 273/313/276 274/315/276
f 260/308/279 259/306/279 274/315/279
f 252/307/280 267/316/280 268/318/280
f 260/308/281 275/317/281 276/319/281
f 253/309/282 268/318/282 269/320/282
f 262/296/283 261/294/283 276/319/283
f 255/297/284 254/295/284 269/320/284
f 262/296/285 277/321/285 278/323/285
f 256/300/286 255/299/286 270/324/286
f 263/326/287 278/566/287 279/310/287
f 256/300/288 271/325/288 272/312/288
f 268/318/527 283/343/527 284/327/527
f 277/321/290 276/319/290 291/328/290
f 269/320/291 284/327/291 285/330/291
f 277/321/292 292/329/292 293/331/292
f 271/325/293 270/324/293 285/332/293
f 279/310/294 278/566/294 293/334/294
f 271/325/295 286/333/295 287/336/295
f 279/310/528 294/335/528 295/337/528
f 273/313/297 272/312/297 287/336/297
f 281/314/298 280/311/298 295/337/298
f 273/313/299 288/338/299 289/340/299
f 274/315/302 289/340/302 290/342/302
f 267/316/303 282/341/303 283/343/303
f 275/317/304 290/342/304 291/328/304
f 288/338/305 287/336/305 303/344/305
f 295/337/306 311/360/306 312/346/306
f 289/340/307 288/338/307 304/345/307
f 289/340/310 305/347/310 306/349/310
f 282/341/311 298/348/311 299/350/311
f 290/342/312 306/349/312 307/351/312
f 283/343/313 299/350/313 300/352/313
f 292/329/314 291/328/314 307/351/314
f 285/330/315 284/327/315 300/352/315
f 292/355/316 308/365/316 309/356/316
f 286/357/317 285/330/317 301/354/317
f 293/334/318 309/356/318 310/359/318
f 286/333/319 302/369/319 303/344/319
f 294/335/320 310/359/320 311/360/320
f 308/353/321 307/351/321 322/361/321
f 301/354/322 300/352/322 315/363/322
f 308/365/323 323/567/323 324/366/323
f 302/358/324 301/354/324 316/364/324
f 309/356/325 324/366/325 325/368/325
f 302/369/326 317/390/326 318/370/326
f 311/360/327 310/359/327 325/368/327
f 304/345/328 303/344/328 318/370/328
f 311/360/329 326/371/329 327/373/329
f 304/345/330 319/372/330 320/374/330
f 305/347/333 320/374/333 321/376/333
f 298/348/334 313/375/334 314/377/334
f 306/349/335 321/376/335 322/361/335
f 299/350/336 314/377/336 315/363/336
f 327/373/529 326/371/529 341/378/529
f 319/372/338 334/395/338 335/380/338
f 320/374/341 335/380/341 336/382/341
f 313/375/342 328/381/342 329/383/342
f 321/376/343 336/382/343 337/384/343
f 314/377/344 329/383/344 330/385/344
f 323/362/345 322/361/345 337/384/345
f 316/364/346 315/363/346 330/385/346
f 324/388/347 323/362/347 338/386/347
f 317/390/348 316/568/348 331/391/348
f 324/366/349 339/401/349 340/393/349
f 317/390/350 332/392/350 333/394/350
f 326/371/351 325/368/351 340/393/351
f 319/372/352 318/370/352 333/394/352
f 331/387/353 330/385/353 345/396/353
f 338/386/354 353/412/354 354/398/354
f 332/392/355 331/391/355 346/399/355
f 339/401/356 354/569/356 355/402/356
f 332/392/357 347/400/357 348/403/357
f 341/378/358 340/393/358 355/402/358
f 334/395/359 333/394/359 348/403/359
f 341/378/360 356/404/360 357/406/360
f 334/395/361 349/405/361 350/407/361
f 335/380/364 350/407/364 351/409/364
f 329/383/365 328/381/365 343/408/365
f 336/382/366 351/409/366 352/411/366
f 329/383/367 344/410/367 345/396/367
f 338/386/368 337/384/368 352/411/368
f 349/405/369 364/428/369 365/413/369
f 351/409/372 350/407/372 365/413/372
f 344/410/373 343/408/373 358/414/373
f 351/409/374 366/416/374 367/418/374
f 344/410/375 359/417/375 360/419/375
f 353/412/376 352/411/376 367/418/376
f 346/397/377 345/396/377 360/419/377
f 353/412/378 368/420/378 369/422/378
f 346/399/379 361/570/379 362/423/379
f 355/402/380 354/569/380 369/424/380
f 347/400/381 362/423/381 363/426/381
f 356/404/382 355/402/382 370/425/382
f 349/405/383 348/403/383 363/426/383
f 356/404/384 371/427/384 372/415/384
f 368/420/385 383/443/385 384/429/385
f 362/423/386 361/570/386 376/430/386
f 369/424/387 384/454/387 385/432/387
f 362/423/388 377/431/388 378/433/388
f 371/427/389 370/425/389 385/432/389
f 364/428/390 363/426/390 378/433/390
f 371/427/391 386/434/391 387/436/391
f 364/428/530 379/435/530 380/437/530
f 366/416/531 365/413/531 380/437/531
f 359/417/396 358/414/396 373/438/396
f 366/416/397 381/439/397 382/441/397
f 359/417/398 374/440/398 375/442/398
f 368/420/399 367/418/399 382/441/399
f 361/421/400 360/419/400 375/442/400
f 380/437/402 395/459/402 396/446/402
f 373/438/403 388/460/403 389/447/403
f 381/439/404 396/446/404 397/448/404
f 374/440/405 389/447/405 390/449/405
f 383/443/406 382/441/406 397/448/406
f 376/444/407 375/442/407 390/449/407
f 383/443/408 398/450/408 399/452/408
f 376/430/409 391/571/409 392/453/409
f 384/454/410 399/461/410 400/455/410
f 377/431/411 392/453/411 393/456/411
f 386/434/412 385/432/412 400/455/412
f 379/435/413 378/433/413 393/456/413
f 386/434/414 401/457/414 402/445/414
f 379/435/415 394/458/415 395/459/415
f 399/461/417 414/485/417 415/462/417
f 392/453/418 407/477/418 408/463/418
f 401/457/419 400/455/419 415/462/419
f 394/458/420 393/456/420 408/463/420
f 401/457/421 416/464/421 417/466/421
f 394/458/422 409/465/422 410/467/422
f 396/446/425 395/459/425 410/467/425
f 388/460/532 403/468/532 404/470/532
f 396/446/427 411/469/427 412/471/427
f 390/449/533 389/447/533 404/470/533
f 398/450/429 397/448/429 412/471/429
f 391/451/430 390/449/430 405/472/430
f 398/450/431 413/473/431 414/475/431
f 392/453/432 391/571/432 406/476/432
f 403/468/433 418/494/433 419/478/433
f 411/469/434 426/495/434 427/479/434
f 404/470/435 419/478/435 420/480/435
f 413/473/436 412/471/436 427/479/436
f 405/472/437 420/480/437 421/482/437
f 413/483/438 428/515/438 429/484/438
f 407/486/439 406/474/439 421/482/439
f 414/485/440 429/484/440 430/488/440
f 407/477/441 422/572/441 423/489/441
f 415/462/442 430/488/442 431/490/442
f 409/465/443 408/463/443 423/489/443
f 416/464/444 431/490/444 432/492/444
f 409/465/445 424/491/445 425/493/445
f 411/469/448 410/467/448 425/493/448
f 422/496/449 437/526/449 438/497/449
f 430/488/450 445/518/450 446/499/450
f 424/500/451 423/498/451 438/497/451
f 431/490/452 446/499/452 447/502/452
f 425/503/453 424/500/453 439/501/453
f 425/503/456 440/504/456 441/506/456
f 418/494/457 433/505/457 434/508/457
f 426/507/458 441/506/458 442/509/458
f 419/478/459 434/508/459 435/511/459
f 428/512/460 427/510/460 442/509/460
f 420/480/461 435/511/461 436/514/461
f 428/515/462 443/573/462 444/516/462
f 422/487/463 421/482/463 436/514/463
f 430/488/464 429/484/464 444/516/464
f 441/506/465 456/536/465 457/519/465
f 435/511/534 434/508/534 449/520/534
f 443/513/467 442/509/467 457/519/467
f 436/514/468 435/511/468 450/521/468
f 443/513/469 458/522/469 459/524/469
f 437/526/470 436/574/470 451/527/470
f 444/516/471 459/552/471 460/529/471
f 437/526/472 452/528/472 453/530/472
f 445/518/535 460/529/535 461/531/535
f 439/501/474 438/497/474 453/530/474
f 446/499/475 461/531/475 462/533/475
f 439/501/476 454/532/476 455/534/476
f 440/504/479 455/534/479 456/536/479
f 434/508/480 433/505/480 448/535/480
f 460/529/481 475/553/481 476/537/481
f 454/532/482 453/530/482 468/538/482
f 462/533/483 461/531/483 476/537/483
f 454/532/484 469/539/484 470/541/484
f 455/534/487 470/541/487 471/543/487
f 448/535/488 463/542/488 464/544/488
f 456/536/489 471/543/489 472/545/489
f 449/520/490 464/544/490 465/546/490
f 458/522/491 457/519/491 472/545/491
f 450/521/492 465/546/492 466/548/492
f 458/522/493 473/547/493 474/549/493
f 452/528/494 451/527/494 466/550/494
f 459/552/495 474/554/495 475/553/495
f 452/528/496 467/551/496 468/538/496
f 465/546/497 464/544/497 2/33/497
f 473/547/498 472/545/498 478/3/498
f 466/548/499 465/546/499 3/4/499
f 473/547/500 479/8/500 480/12/500
f 467/551/501 466/550/501 4/10/501
f 474/554/502 480/15/502 10/17/502
f 468/538/503 467/551/503 5/14/503
f 475/553/504 10/17/504 481/21/504
f 469/539/505 468/538/505 6/19/505
f 476/537/506 481/21/506 482/25/506
f 470/541/536 469/539/536 7/23/536
f 470/541/537 8/27/537 9/1/537
f 464/544/511 463/542/511 1/28/511
f 471/543/512 9/1/512 478/3/512
